<mxfile host="app.diagrams.net" agent="Mozilla/5.0 (Windows NT 10.0; Win64; x64) AppleWebKit/537.36 (KHTML, like Gecko) Chrome/138.0.0.0 Safari/537.36" version="28.0.7">
  <diagram id="yF09wzQ3di6HqxB7pPc4" name="Página-1">
    <mxGraphModel dx="1678" dy="884" grid="1" gridSize="10" guides="1" tooltips="1" connect="1" arrows="1" fold="1" page="1" pageScale="1" pageWidth="827" pageHeight="1169" math="0" shadow="0">
      <root>
        <mxCell id="0" />
        <mxCell id="1" parent="0" />
        <mxCell id="A-kE1wjKScTK0xUyLV8q-9" style="edgeStyle=orthogonalEdgeStyle;rounded=0;orthogonalLoop=1;jettySize=auto;html=1;" parent="1" source="A-kE1wjKScTK0xUyLV8q-1" edge="1">
          <mxGeometry relative="1" as="geometry">
            <mxPoint x="85" y="640" as="targetPoint" />
          </mxGeometry>
        </mxCell>
        <mxCell id="A-kE1wjKScTK0xUyLV8q-1" value="Usuario" style="shape=umlActor;verticalLabelPosition=top;verticalAlign=bottom;html=1;outlineConnect=0;labelPosition=center;align=center;spacing=8;" parent="1" vertex="1">
          <mxGeometry x="70" y="100" width="30" height="60" as="geometry" />
        </mxCell>
        <mxCell id="A-kE1wjKScTK0xUyLV8q-2" value="UC1: Registrarse" style="text;html=1;align=center;verticalAlign=middle;whiteSpace=wrap;rounded=0;" parent="1" vertex="1">
          <mxGeometry x="331" y="40" width="166" height="30" as="geometry" />
        </mxCell>
        <mxCell id="A-kE1wjKScTK0xUyLV8q-6" style="edgeStyle=orthogonalEdgeStyle;rounded=0;orthogonalLoop=1;jettySize=auto;html=1;" parent="1" source="A-kE1wjKScTK0xUyLV8q-3" edge="1">
          <mxGeometry relative="1" as="geometry">
            <mxPoint x="276" y="640" as="targetPoint" />
          </mxGeometry>
        </mxCell>
        <mxCell id="A-kE1wjKScTK0xUyLV8q-3" value="Sistema Central" style="rounded=1;whiteSpace=wrap;html=1;" parent="1" vertex="1">
          <mxGeometry x="221" y="120" width="110" height="40" as="geometry" />
        </mxCell>
        <mxCell id="A-kE1wjKScTK0xUyLV8q-7" style="edgeStyle=orthogonalEdgeStyle;rounded=0;orthogonalLoop=1;jettySize=auto;html=1;" parent="1" source="A-kE1wjKScTK0xUyLV8q-4" edge="1">
          <mxGeometry relative="1" as="geometry">
            <mxPoint x="505" y="640" as="targetPoint" />
          </mxGeometry>
        </mxCell>
        <mxCell id="A-kE1wjKScTK0xUyLV8q-4" value="Backend API" style="rounded=1;whiteSpace=wrap;html=1;" parent="1" vertex="1">
          <mxGeometry x="450" y="120" width="110" height="40" as="geometry" />
        </mxCell>
        <mxCell id="A-kE1wjKScTK0xUyLV8q-8" style="edgeStyle=orthogonalEdgeStyle;rounded=0;orthogonalLoop=1;jettySize=auto;html=1;" parent="1" source="A-kE1wjKScTK0xUyLV8q-5" edge="1">
          <mxGeometry relative="1" as="geometry">
            <mxPoint x="735" y="640" as="targetPoint" />
          </mxGeometry>
        </mxCell>
        <mxCell id="A-kE1wjKScTK0xUyLV8q-5" value="Scheduler" style="rounded=1;whiteSpace=wrap;html=1;" parent="1" vertex="1">
          <mxGeometry x="680" y="120" width="110" height="40" as="geometry" />
        </mxCell>
        <mxCell id="A-kE1wjKScTK0xUyLV8q-10" value="" style="endArrow=classic;html=1;rounded=0;strokeColor=default;align=center;endSize=6;" parent="1" edge="1">
          <mxGeometry width="50" height="50" relative="1" as="geometry">
            <mxPoint x="85" y="240" as="sourcePoint" />
            <mxPoint x="275" y="240" as="targetPoint" />
          </mxGeometry>
        </mxCell>
        <mxCell id="A-kE1wjKScTK0xUyLV8q-12" value="1. Introducir correo y contraseña" style="edgeLabel;html=1;align=center;verticalAlign=middle;resizable=0;points=[];" parent="A-kE1wjKScTK0xUyLV8q-10" vertex="1" connectable="0">
          <mxGeometry x="0.1095" relative="1" as="geometry">
            <mxPoint x="-11" y="-10" as="offset" />
          </mxGeometry>
        </mxCell>
        <mxCell id="A-kE1wjKScTK0xUyLV8q-13" value="" style="endArrow=classic;html=1;rounded=0;strokeColor=default;align=center;endSize=6;" parent="1" edge="1">
          <mxGeometry width="50" height="50" relative="1" as="geometry">
            <mxPoint x="85" y="280" as="sourcePoint" />
            <mxPoint x="275" y="280" as="targetPoint" />
          </mxGeometry>
        </mxCell>
        <mxCell id="A-kE1wjKScTK0xUyLV8q-14" value="2. Pulsar Registrarse" style="edgeLabel;html=1;align=center;verticalAlign=middle;resizable=0;points=[];" parent="A-kE1wjKScTK0xUyLV8q-13" vertex="1" connectable="0">
          <mxGeometry x="0.1095" relative="1" as="geometry">
            <mxPoint x="-11" y="-10" as="offset" />
          </mxGeometry>
        </mxCell>
        <mxCell id="A-kE1wjKScTK0xUyLV8q-15" value="" style="endArrow=classic;html=1;rounded=0;strokeColor=default;align=center;endSize=6;" parent="1" edge="1">
          <mxGeometry width="50" height="50" relative="1" as="geometry">
            <mxPoint x="275" y="320" as="sourcePoint" />
            <mxPoint x="505" y="320" as="targetPoint" />
            <Array as="points">
              <mxPoint x="320" y="320" />
              <mxPoint x="370" y="320" />
            </Array>
          </mxGeometry>
        </mxCell>
        <mxCell id="A-kE1wjKScTK0xUyLV8q-16" value="3. Validar datos y crear cuenta" style="edgeLabel;html=1;align=center;verticalAlign=middle;resizable=0;points=[];" parent="A-kE1wjKScTK0xUyLV8q-15" vertex="1" connectable="0">
          <mxGeometry x="0.1095" relative="1" as="geometry">
            <mxPoint x="-11" y="-10" as="offset" />
          </mxGeometry>
        </mxCell>
        <mxCell id="A-kE1wjKScTK0xUyLV8q-17" value="" style="endArrow=none;html=1;rounded=0;strokeColor=default;align=center;endSize=6;endFill=0;startArrow=classic;startFill=1;" parent="1" edge="1">
          <mxGeometry width="50" height="50" relative="1" as="geometry">
            <mxPoint x="275" y="360" as="sourcePoint" />
            <mxPoint x="505" y="360" as="targetPoint" />
            <Array as="points">
              <mxPoint x="325" y="360" />
              <mxPoint x="375" y="360" />
            </Array>
          </mxGeometry>
        </mxCell>
        <mxCell id="A-kE1wjKScTK0xUyLV8q-18" value="4. Confirmar creación" style="edgeLabel;html=1;align=center;verticalAlign=middle;resizable=0;points=[];" parent="A-kE1wjKScTK0xUyLV8q-17" vertex="1" connectable="0">
          <mxGeometry x="0.1095" relative="1" as="geometry">
            <mxPoint x="-11" y="-10" as="offset" />
          </mxGeometry>
        </mxCell>
        <mxCell id="A-kE1wjKScTK0xUyLV8q-19" value="" style="endArrow=none;html=1;rounded=0;strokeColor=default;align=center;endSize=6;endFill=0;startArrow=classic;startFill=1;" parent="1" edge="1">
          <mxGeometry width="50" height="50" relative="1" as="geometry">
            <mxPoint x="85" y="400" as="sourcePoint" />
            <mxPoint x="275" y="400" as="targetPoint" />
            <Array as="points">
              <mxPoint x="100" y="400" />
              <mxPoint x="150" y="400" />
            </Array>
          </mxGeometry>
        </mxCell>
        <mxCell id="A-kE1wjKScTK0xUyLV8q-20" value="5. Confirmar creación" style="edgeLabel;html=1;align=center;verticalAlign=middle;resizable=0;points=[];" parent="A-kE1wjKScTK0xUyLV8q-19" vertex="1" connectable="0">
          <mxGeometry x="0.1095" relative="1" as="geometry">
            <mxPoint x="-11" y="-10" as="offset" />
          </mxGeometry>
        </mxCell>
        <mxCell id="A-kE1wjKScTK0xUyLV8q-21" style="edgeStyle=orthogonalEdgeStyle;rounded=0;orthogonalLoop=1;jettySize=auto;html=1;" parent="1" source="A-kE1wjKScTK0xUyLV8q-22" edge="1">
          <mxGeometry relative="1" as="geometry">
            <mxPoint x="896" y="640" as="targetPoint" />
          </mxGeometry>
        </mxCell>
        <mxCell id="A-kE1wjKScTK0xUyLV8q-22" value="Usuario" style="shape=umlActor;verticalLabelPosition=top;verticalAlign=bottom;html=1;outlineConnect=0;labelPosition=center;align=center;spacing=8;" parent="1" vertex="1">
          <mxGeometry x="881" y="100" width="30" height="60" as="geometry" />
        </mxCell>
        <mxCell id="A-kE1wjKScTK0xUyLV8q-23" value="UC2: Iniciar Sesión" style="text;html=1;align=center;verticalAlign=middle;whiteSpace=wrap;rounded=0;" parent="1" vertex="1">
          <mxGeometry x="1157" y="40" width="166" height="30" as="geometry" />
        </mxCell>
        <mxCell id="A-kE1wjKScTK0xUyLV8q-24" style="edgeStyle=orthogonalEdgeStyle;rounded=0;orthogonalLoop=1;jettySize=auto;html=1;" parent="1" source="A-kE1wjKScTK0xUyLV8q-25" edge="1">
          <mxGeometry relative="1" as="geometry">
            <mxPoint x="1087" y="640" as="targetPoint" />
          </mxGeometry>
        </mxCell>
        <mxCell id="A-kE1wjKScTK0xUyLV8q-25" value="Sistema Central" style="rounded=1;whiteSpace=wrap;html=1;" parent="1" vertex="1">
          <mxGeometry x="1032" y="120" width="110" height="40" as="geometry" />
        </mxCell>
        <mxCell id="A-kE1wjKScTK0xUyLV8q-26" style="edgeStyle=orthogonalEdgeStyle;rounded=0;orthogonalLoop=1;jettySize=auto;html=1;" parent="1" source="A-kE1wjKScTK0xUyLV8q-27" edge="1">
          <mxGeometry relative="1" as="geometry">
            <mxPoint x="1316" y="640" as="targetPoint" />
          </mxGeometry>
        </mxCell>
        <mxCell id="A-kE1wjKScTK0xUyLV8q-27" value="Backend API" style="rounded=1;whiteSpace=wrap;html=1;" parent="1" vertex="1">
          <mxGeometry x="1261" y="120" width="110" height="40" as="geometry" />
        </mxCell>
        <mxCell id="A-kE1wjKScTK0xUyLV8q-28" style="edgeStyle=orthogonalEdgeStyle;rounded=0;orthogonalLoop=1;jettySize=auto;html=1;" parent="1" source="A-kE1wjKScTK0xUyLV8q-29" edge="1">
          <mxGeometry relative="1" as="geometry">
            <mxPoint x="1546" y="640" as="targetPoint" />
          </mxGeometry>
        </mxCell>
        <mxCell id="A-kE1wjKScTK0xUyLV8q-29" value="Scheduler" style="rounded=1;whiteSpace=wrap;html=1;" parent="1" vertex="1">
          <mxGeometry x="1491" y="120" width="110" height="40" as="geometry" />
        </mxCell>
        <mxCell id="A-kE1wjKScTK0xUyLV8q-30" value="" style="endArrow=classic;html=1;rounded=0;strokeColor=default;align=center;endSize=6;" parent="1" edge="1">
          <mxGeometry width="50" height="50" relative="1" as="geometry">
            <mxPoint x="896" y="240" as="sourcePoint" />
            <mxPoint x="1086" y="240" as="targetPoint" />
          </mxGeometry>
        </mxCell>
        <mxCell id="A-kE1wjKScTK0xUyLV8q-31" value="1. Introducir correo y contraseña" style="edgeLabel;html=1;align=center;verticalAlign=middle;resizable=0;points=[];" parent="A-kE1wjKScTK0xUyLV8q-30" vertex="1" connectable="0">
          <mxGeometry x="0.1095" relative="1" as="geometry">
            <mxPoint x="-11" y="-10" as="offset" />
          </mxGeometry>
        </mxCell>
        <mxCell id="A-kE1wjKScTK0xUyLV8q-32" value="" style="endArrow=classic;html=1;rounded=0;strokeColor=default;align=center;endSize=6;" parent="1" edge="1">
          <mxGeometry width="50" height="50" relative="1" as="geometry">
            <mxPoint x="896" y="280" as="sourcePoint" />
            <mxPoint x="1086" y="280" as="targetPoint" />
          </mxGeometry>
        </mxCell>
        <mxCell id="A-kE1wjKScTK0xUyLV8q-33" value="2. Pulsar Iniciar Sesión" style="edgeLabel;html=1;align=center;verticalAlign=middle;resizable=0;points=[];" parent="A-kE1wjKScTK0xUyLV8q-32" vertex="1" connectable="0">
          <mxGeometry x="0.1095" relative="1" as="geometry">
            <mxPoint x="-11" y="-10" as="offset" />
          </mxGeometry>
        </mxCell>
        <mxCell id="A-kE1wjKScTK0xUyLV8q-34" value="" style="endArrow=classic;html=1;rounded=0;strokeColor=default;align=center;endSize=6;" parent="1" edge="1">
          <mxGeometry width="50" height="50" relative="1" as="geometry">
            <mxPoint x="1086" y="320" as="sourcePoint" />
            <mxPoint x="1316" y="320" as="targetPoint" />
            <Array as="points">
              <mxPoint x="1131" y="320" />
              <mxPoint x="1181" y="320" />
            </Array>
          </mxGeometry>
        </mxCell>
        <mxCell id="A-kE1wjKScTK0xUyLV8q-35" value="3. Verificar credenciales de inicio de sesión" style="edgeLabel;html=1;align=center;verticalAlign=middle;resizable=0;points=[];" parent="A-kE1wjKScTK0xUyLV8q-34" vertex="1" connectable="0">
          <mxGeometry x="0.1095" relative="1" as="geometry">
            <mxPoint x="-13" y="-10" as="offset" />
          </mxGeometry>
        </mxCell>
        <mxCell id="A-kE1wjKScTK0xUyLV8q-36" value="" style="endArrow=none;html=1;rounded=0;strokeColor=default;align=center;endSize=6;endFill=0;startArrow=classic;startFill=1;" parent="1" edge="1">
          <mxGeometry width="50" height="50" relative="1" as="geometry">
            <mxPoint x="1086" y="360" as="sourcePoint" />
            <mxPoint x="1316" y="360" as="targetPoint" />
            <Array as="points">
              <mxPoint x="1136" y="360" />
              <mxPoint x="1186" y="360" />
            </Array>
          </mxGeometry>
        </mxCell>
        <mxCell id="A-kE1wjKScTK0xUyLV8q-37" value="4. Confirmar inicio de sesión" style="edgeLabel;html=1;align=center;verticalAlign=middle;resizable=0;points=[];" parent="A-kE1wjKScTK0xUyLV8q-36" vertex="1" connectable="0">
          <mxGeometry x="0.1095" relative="1" as="geometry">
            <mxPoint x="-11" y="-10" as="offset" />
          </mxGeometry>
        </mxCell>
        <mxCell id="A-kE1wjKScTK0xUyLV8q-38" value="" style="endArrow=none;html=1;rounded=0;strokeColor=default;align=center;endSize=6;endFill=0;startArrow=classic;startFill=1;" parent="1" edge="1">
          <mxGeometry width="50" height="50" relative="1" as="geometry">
            <mxPoint x="896" y="400" as="sourcePoint" />
            <mxPoint x="1086" y="400" as="targetPoint" />
            <Array as="points">
              <mxPoint x="911" y="400" />
              <mxPoint x="961" y="400" />
            </Array>
          </mxGeometry>
        </mxCell>
        <mxCell id="A-kE1wjKScTK0xUyLV8q-39" value="5. Confirmar inicio de sesión" style="edgeLabel;html=1;align=center;verticalAlign=middle;resizable=0;points=[];" parent="A-kE1wjKScTK0xUyLV8q-38" vertex="1" connectable="0">
          <mxGeometry x="0.1095" relative="1" as="geometry">
            <mxPoint x="-11" y="-10" as="offset" />
          </mxGeometry>
        </mxCell>
        <mxCell id="A-kE1wjKScTK0xUyLV8q-60" style="edgeStyle=orthogonalEdgeStyle;rounded=0;orthogonalLoop=1;jettySize=auto;html=1;" parent="1" source="A-kE1wjKScTK0xUyLV8q-61" edge="1">
          <mxGeometry relative="1" as="geometry">
            <mxPoint x="1722" y="640" as="targetPoint" />
          </mxGeometry>
        </mxCell>
        <mxCell id="A-kE1wjKScTK0xUyLV8q-61" value="Usuario" style="shape=umlActor;verticalLabelPosition=top;verticalAlign=bottom;html=1;outlineConnect=0;labelPosition=center;align=center;spacing=8;" parent="1" vertex="1">
          <mxGeometry x="1707" y="100" width="30" height="60" as="geometry" />
        </mxCell>
        <mxCell id="A-kE1wjKScTK0xUyLV8q-62" value="UC3: Visualizar&amp;nbsp;&lt;div&gt;Calendario de Prácticas&lt;/div&gt;" style="text;html=1;align=center;verticalAlign=middle;whiteSpace=wrap;rounded=0;" parent="1" vertex="1">
          <mxGeometry x="1984" y="40" width="166" height="30" as="geometry" />
        </mxCell>
        <mxCell id="A-kE1wjKScTK0xUyLV8q-63" style="edgeStyle=orthogonalEdgeStyle;rounded=0;orthogonalLoop=1;jettySize=auto;html=1;" parent="1" source="A-kE1wjKScTK0xUyLV8q-64" edge="1">
          <mxGeometry relative="1" as="geometry">
            <mxPoint x="1913" y="640" as="targetPoint" />
          </mxGeometry>
        </mxCell>
        <mxCell id="A-kE1wjKScTK0xUyLV8q-64" value="Sistema Central" style="rounded=1;whiteSpace=wrap;html=1;" parent="1" vertex="1">
          <mxGeometry x="1858" y="120" width="110" height="40" as="geometry" />
        </mxCell>
        <mxCell id="A-kE1wjKScTK0xUyLV8q-65" style="edgeStyle=orthogonalEdgeStyle;rounded=0;orthogonalLoop=1;jettySize=auto;html=1;" parent="1" source="A-kE1wjKScTK0xUyLV8q-66" edge="1">
          <mxGeometry relative="1" as="geometry">
            <mxPoint x="2142" y="640" as="targetPoint" />
          </mxGeometry>
        </mxCell>
        <mxCell id="A-kE1wjKScTK0xUyLV8q-66" value="Backend API" style="rounded=1;whiteSpace=wrap;html=1;" parent="1" vertex="1">
          <mxGeometry x="2087" y="120" width="110" height="40" as="geometry" />
        </mxCell>
        <mxCell id="A-kE1wjKScTK0xUyLV8q-67" style="edgeStyle=orthogonalEdgeStyle;rounded=0;orthogonalLoop=1;jettySize=auto;html=1;" parent="1" source="A-kE1wjKScTK0xUyLV8q-68" edge="1">
          <mxGeometry relative="1" as="geometry">
            <mxPoint x="2372" y="640" as="targetPoint" />
          </mxGeometry>
        </mxCell>
        <mxCell id="A-kE1wjKScTK0xUyLV8q-68" value="Scheduler" style="rounded=1;whiteSpace=wrap;html=1;" parent="1" vertex="1">
          <mxGeometry x="2317" y="120" width="110" height="40" as="geometry" />
        </mxCell>
        <mxCell id="A-kE1wjKScTK0xUyLV8q-69" value="" style="endArrow=classic;html=1;rounded=0;strokeColor=default;align=center;endSize=6;" parent="1" edge="1">
          <mxGeometry width="50" height="50" relative="1" as="geometry">
            <mxPoint x="1722" y="240" as="sourcePoint" />
            <mxPoint x="1912" y="240" as="targetPoint" />
          </mxGeometry>
        </mxCell>
        <mxCell id="A-kE1wjKScTK0xUyLV8q-70" value="1. Acceder sección de Calendario" style="edgeLabel;html=1;align=center;verticalAlign=middle;resizable=0;points=[];" parent="A-kE1wjKScTK0xUyLV8q-69" vertex="1" connectable="0">
          <mxGeometry x="0.1095" relative="1" as="geometry">
            <mxPoint x="-11" y="-10" as="offset" />
          </mxGeometry>
        </mxCell>
        <mxCell id="A-kE1wjKScTK0xUyLV8q-73" value="" style="endArrow=classic;html=1;rounded=0;strokeColor=default;align=center;endSize=6;" parent="1" edge="1">
          <mxGeometry width="50" height="50" relative="1" as="geometry">
            <mxPoint x="1913" y="280" as="sourcePoint" />
            <mxPoint x="2141" y="280" as="targetPoint" />
            <Array as="points">
              <mxPoint x="1957" y="280" />
              <mxPoint x="2007" y="280" />
            </Array>
          </mxGeometry>
        </mxCell>
        <mxCell id="A-kE1wjKScTK0xUyLV8q-74" value="2. Obtener actividades y asignaturas" style="edgeLabel;html=1;align=center;verticalAlign=middle;resizable=0;points=[];" parent="A-kE1wjKScTK0xUyLV8q-73" vertex="1" connectable="0">
          <mxGeometry x="0.1095" relative="1" as="geometry">
            <mxPoint x="-13" y="-10" as="offset" />
          </mxGeometry>
        </mxCell>
        <mxCell id="A-kE1wjKScTK0xUyLV8q-75" value="" style="endArrow=none;html=1;rounded=0;strokeColor=default;align=center;endSize=6;endFill=0;startArrow=classic;startFill=1;" parent="1" edge="1">
          <mxGeometry width="50" height="50" relative="1" as="geometry">
            <mxPoint x="1722" y="360" as="sourcePoint" />
            <mxPoint x="1913" y="360" as="targetPoint" />
            <Array as="points">
              <mxPoint x="1730" y="360" />
              <mxPoint x="1780" y="360" />
            </Array>
          </mxGeometry>
        </mxCell>
        <mxCell id="A-kE1wjKScTK0xUyLV8q-76" value="4. Organizar y cargar diagrama" style="edgeLabel;html=1;align=center;verticalAlign=middle;resizable=0;points=[];" parent="A-kE1wjKScTK0xUyLV8q-75" vertex="1" connectable="0">
          <mxGeometry x="0.1095" relative="1" as="geometry">
            <mxPoint x="-11" y="-10" as="offset" />
          </mxGeometry>
        </mxCell>
        <mxCell id="A-kE1wjKScTK0xUyLV8q-81" value="" style="endArrow=none;html=1;rounded=0;strokeColor=default;align=center;endSize=6;startFill=1;startArrow=classic;" parent="1" edge="1">
          <mxGeometry width="50" height="50" relative="1" as="geometry">
            <mxPoint x="1913" y="320" as="sourcePoint" />
            <mxPoint x="2141" y="320" as="targetPoint" />
            <Array as="points">
              <mxPoint x="1955" y="320" />
              <mxPoint x="2005" y="320" />
            </Array>
          </mxGeometry>
        </mxCell>
        <mxCell id="A-kE1wjKScTK0xUyLV8q-82" value="3. Actividades y asignaturas" style="edgeLabel;html=1;align=center;verticalAlign=middle;resizable=0;points=[];" parent="A-kE1wjKScTK0xUyLV8q-81" vertex="1" connectable="0">
          <mxGeometry x="0.1095" relative="1" as="geometry">
            <mxPoint x="-13" y="-10" as="offset" />
          </mxGeometry>
        </mxCell>
        <mxCell id="A-kE1wjKScTK0xUyLV8q-83" style="edgeStyle=orthogonalEdgeStyle;rounded=0;orthogonalLoop=1;jettySize=auto;html=1;" parent="1" source="A-kE1wjKScTK0xUyLV8q-84" edge="1">
          <mxGeometry relative="1" as="geometry">
            <mxPoint x="2550" y="640" as="targetPoint" />
          </mxGeometry>
        </mxCell>
        <mxCell id="A-kE1wjKScTK0xUyLV8q-84" value="Usuario" style="shape=umlActor;verticalLabelPosition=top;verticalAlign=bottom;html=1;outlineConnect=0;labelPosition=center;align=center;spacing=8;" parent="1" vertex="1">
          <mxGeometry x="2535" y="100" width="30" height="60" as="geometry" />
        </mxCell>
        <mxCell id="A-kE1wjKScTK0xUyLV8q-85" value="UC4: Visualizar&amp;nbsp;&lt;div&gt;Organizador de Prácticas&lt;/div&gt;" style="text;html=1;align=center;verticalAlign=middle;whiteSpace=wrap;rounded=0;" parent="1" vertex="1">
          <mxGeometry x="2812" y="40" width="166" height="30" as="geometry" />
        </mxCell>
        <mxCell id="A-kE1wjKScTK0xUyLV8q-86" style="edgeStyle=orthogonalEdgeStyle;rounded=0;orthogonalLoop=1;jettySize=auto;html=1;" parent="1" source="A-kE1wjKScTK0xUyLV8q-87" edge="1">
          <mxGeometry relative="1" as="geometry">
            <mxPoint x="2741" y="640" as="targetPoint" />
          </mxGeometry>
        </mxCell>
        <mxCell id="A-kE1wjKScTK0xUyLV8q-87" value="Sistema Central" style="rounded=1;whiteSpace=wrap;html=1;" parent="1" vertex="1">
          <mxGeometry x="2686" y="120" width="110" height="40" as="geometry" />
        </mxCell>
        <mxCell id="A-kE1wjKScTK0xUyLV8q-88" style="edgeStyle=orthogonalEdgeStyle;rounded=0;orthogonalLoop=1;jettySize=auto;html=1;" parent="1" source="A-kE1wjKScTK0xUyLV8q-89" edge="1">
          <mxGeometry relative="1" as="geometry">
            <mxPoint x="2970" y="640" as="targetPoint" />
          </mxGeometry>
        </mxCell>
        <mxCell id="A-kE1wjKScTK0xUyLV8q-89" value="Backend API" style="rounded=1;whiteSpace=wrap;html=1;" parent="1" vertex="1">
          <mxGeometry x="2915" y="120" width="110" height="40" as="geometry" />
        </mxCell>
        <mxCell id="A-kE1wjKScTK0xUyLV8q-90" style="edgeStyle=orthogonalEdgeStyle;rounded=0;orthogonalLoop=1;jettySize=auto;html=1;" parent="1" source="A-kE1wjKScTK0xUyLV8q-91" edge="1">
          <mxGeometry relative="1" as="geometry">
            <mxPoint x="3200" y="640" as="targetPoint" />
          </mxGeometry>
        </mxCell>
        <mxCell id="A-kE1wjKScTK0xUyLV8q-91" value="Scheduler" style="rounded=1;whiteSpace=wrap;html=1;" parent="1" vertex="1">
          <mxGeometry x="3145" y="120" width="110" height="40" as="geometry" />
        </mxCell>
        <mxCell id="A-kE1wjKScTK0xUyLV8q-92" value="" style="endArrow=classic;html=1;rounded=0;strokeColor=default;align=center;endSize=6;" parent="1" edge="1">
          <mxGeometry width="50" height="50" relative="1" as="geometry">
            <mxPoint x="2550" y="240" as="sourcePoint" />
            <mxPoint x="2740" y="240" as="targetPoint" />
          </mxGeometry>
        </mxCell>
        <mxCell id="A-kE1wjKScTK0xUyLV8q-93" value="1. Acceder sección de Organizador" style="edgeLabel;html=1;align=center;verticalAlign=middle;resizable=0;points=[];" parent="A-kE1wjKScTK0xUyLV8q-92" vertex="1" connectable="0">
          <mxGeometry x="0.1095" relative="1" as="geometry">
            <mxPoint x="-11" y="-10" as="offset" />
          </mxGeometry>
        </mxCell>
        <mxCell id="A-kE1wjKScTK0xUyLV8q-94" value="" style="endArrow=classic;html=1;rounded=0;strokeColor=default;align=center;endSize=6;" parent="1" edge="1">
          <mxGeometry width="50" height="50" relative="1" as="geometry">
            <mxPoint x="2741" y="280" as="sourcePoint" />
            <mxPoint x="2969" y="280" as="targetPoint" />
            <Array as="points">
              <mxPoint x="2785" y="280" />
              <mxPoint x="2835" y="280" />
            </Array>
          </mxGeometry>
        </mxCell>
        <mxCell id="A-kE1wjKScTK0xUyLV8q-95" value="2. Obtener días de calendario organizados" style="edgeLabel;html=1;align=center;verticalAlign=middle;resizable=0;points=[];" parent="A-kE1wjKScTK0xUyLV8q-94" vertex="1" connectable="0">
          <mxGeometry x="0.1095" relative="1" as="geometry">
            <mxPoint x="-13" y="-10" as="offset" />
          </mxGeometry>
        </mxCell>
        <mxCell id="A-kE1wjKScTK0xUyLV8q-96" value="" style="endArrow=none;html=1;rounded=0;strokeColor=default;align=center;endSize=6;endFill=0;startArrow=classic;startFill=1;" parent="1" edge="1">
          <mxGeometry width="50" height="50" relative="1" as="geometry">
            <mxPoint x="2550" y="360" as="sourcePoint" />
            <mxPoint x="2741" y="360" as="targetPoint" />
            <Array as="points">
              <mxPoint x="2558" y="360" />
              <mxPoint x="2608" y="360" />
            </Array>
          </mxGeometry>
        </mxCell>
        <mxCell id="A-kE1wjKScTK0xUyLV8q-97" value="4. Organizar y cargar calendario" style="edgeLabel;html=1;align=center;verticalAlign=middle;resizable=0;points=[];" parent="A-kE1wjKScTK0xUyLV8q-96" vertex="1" connectable="0">
          <mxGeometry x="0.1095" relative="1" as="geometry">
            <mxPoint x="-11" y="-10" as="offset" />
          </mxGeometry>
        </mxCell>
        <mxCell id="A-kE1wjKScTK0xUyLV8q-98" value="" style="endArrow=none;html=1;rounded=0;strokeColor=default;align=center;endSize=6;startFill=1;startArrow=classic;" parent="1" edge="1">
          <mxGeometry width="50" height="50" relative="1" as="geometry">
            <mxPoint x="2741" y="320" as="sourcePoint" />
            <mxPoint x="2969" y="320" as="targetPoint" />
            <Array as="points">
              <mxPoint x="2783" y="320" />
              <mxPoint x="2833" y="320" />
            </Array>
          </mxGeometry>
        </mxCell>
        <mxCell id="A-kE1wjKScTK0xUyLV8q-99" value="3. Días de calendario organizados" style="edgeLabel;html=1;align=center;verticalAlign=middle;resizable=0;points=[];" parent="A-kE1wjKScTK0xUyLV8q-98" vertex="1" connectable="0">
          <mxGeometry x="0.1095" relative="1" as="geometry">
            <mxPoint x="-13" y="-10" as="offset" />
          </mxGeometry>
        </mxCell>
        <mxCell id="A-kE1wjKScTK0xUyLV8q-100" style="edgeStyle=orthogonalEdgeStyle;rounded=0;orthogonalLoop=1;jettySize=auto;html=1;" parent="1" source="A-kE1wjKScTK0xUyLV8q-101" edge="1">
          <mxGeometry relative="1" as="geometry">
            <mxPoint x="85" y="1280" as="targetPoint" />
          </mxGeometry>
        </mxCell>
        <mxCell id="A-kE1wjKScTK0xUyLV8q-101" value="Usuario" style="shape=umlActor;verticalLabelPosition=top;verticalAlign=bottom;html=1;outlineConnect=0;labelPosition=center;align=center;spacing=8;" parent="1" vertex="1">
          <mxGeometry x="70" y="740" width="30" height="60" as="geometry" />
        </mxCell>
        <mxCell id="A-kE1wjKScTK0xUyLV8q-102" value="UC5: Ver Perfil" style="text;html=1;align=center;verticalAlign=middle;whiteSpace=wrap;rounded=0;" parent="1" vertex="1">
          <mxGeometry x="331" y="680" width="166" height="30" as="geometry" />
        </mxCell>
        <mxCell id="A-kE1wjKScTK0xUyLV8q-103" style="edgeStyle=orthogonalEdgeStyle;rounded=0;orthogonalLoop=1;jettySize=auto;html=1;" parent="1" source="A-kE1wjKScTK0xUyLV8q-104" edge="1">
          <mxGeometry relative="1" as="geometry">
            <mxPoint x="276" y="1280" as="targetPoint" />
          </mxGeometry>
        </mxCell>
        <mxCell id="A-kE1wjKScTK0xUyLV8q-104" value="Sistema Central" style="rounded=1;whiteSpace=wrap;html=1;" parent="1" vertex="1">
          <mxGeometry x="221" y="760" width="110" height="40" as="geometry" />
        </mxCell>
        <mxCell id="A-kE1wjKScTK0xUyLV8q-105" style="edgeStyle=orthogonalEdgeStyle;rounded=0;orthogonalLoop=1;jettySize=auto;html=1;" parent="1" source="A-kE1wjKScTK0xUyLV8q-106" edge="1">
          <mxGeometry relative="1" as="geometry">
            <mxPoint x="505" y="1280" as="targetPoint" />
          </mxGeometry>
        </mxCell>
        <mxCell id="A-kE1wjKScTK0xUyLV8q-106" value="Backend API" style="rounded=1;whiteSpace=wrap;html=1;" parent="1" vertex="1">
          <mxGeometry x="450" y="760" width="110" height="40" as="geometry" />
        </mxCell>
        <mxCell id="A-kE1wjKScTK0xUyLV8q-107" style="edgeStyle=orthogonalEdgeStyle;rounded=0;orthogonalLoop=1;jettySize=auto;html=1;" parent="1" source="A-kE1wjKScTK0xUyLV8q-108" edge="1">
          <mxGeometry relative="1" as="geometry">
            <mxPoint x="735" y="1280" as="targetPoint" />
          </mxGeometry>
        </mxCell>
        <mxCell id="A-kE1wjKScTK0xUyLV8q-108" value="Scheduler" style="rounded=1;whiteSpace=wrap;html=1;" parent="1" vertex="1">
          <mxGeometry x="680" y="760" width="110" height="40" as="geometry" />
        </mxCell>
        <mxCell id="A-kE1wjKScTK0xUyLV8q-109" value="" style="endArrow=classic;html=1;rounded=0;strokeColor=default;align=center;endSize=6;" parent="1" edge="1">
          <mxGeometry width="50" height="50" relative="1" as="geometry">
            <mxPoint x="85" y="880" as="sourcePoint" />
            <mxPoint x="275" y="880" as="targetPoint" />
          </mxGeometry>
        </mxCell>
        <mxCell id="A-kE1wjKScTK0xUyLV8q-110" value="1. Acceder sección de Mi Perfil" style="edgeLabel;html=1;align=center;verticalAlign=middle;resizable=0;points=[];" parent="A-kE1wjKScTK0xUyLV8q-109" vertex="1" connectable="0">
          <mxGeometry x="0.1095" relative="1" as="geometry">
            <mxPoint x="-11" y="-10" as="offset" />
          </mxGeometry>
        </mxCell>
        <mxCell id="A-kE1wjKScTK0xUyLV8q-113" value="" style="endArrow=classic;html=1;rounded=0;strokeColor=default;align=center;endSize=6;" parent="1" edge="1">
          <mxGeometry width="50" height="50" relative="1" as="geometry">
            <mxPoint x="276" y="920" as="sourcePoint" />
            <mxPoint x="505" y="920" as="targetPoint" />
            <Array as="points">
              <mxPoint x="320" y="920" />
              <mxPoint x="370" y="920" />
            </Array>
          </mxGeometry>
        </mxCell>
        <mxCell id="A-kE1wjKScTK0xUyLV8q-114" value="2. Recuperar información de usuario y&amp;nbsp;&lt;div&gt;asignaturas asignadas&lt;/div&gt;" style="edgeLabel;html=1;align=center;verticalAlign=middle;resizable=0;points=[];" parent="A-kE1wjKScTK0xUyLV8q-113" vertex="1" connectable="0">
          <mxGeometry x="0.1095" relative="1" as="geometry">
            <mxPoint x="-11" y="-20" as="offset" />
          </mxGeometry>
        </mxCell>
        <mxCell id="A-kE1wjKScTK0xUyLV8q-115" value="" style="endArrow=none;html=1;rounded=0;strokeColor=default;align=center;endSize=6;endFill=0;startArrow=classic;startFill=1;" parent="1" edge="1">
          <mxGeometry width="50" height="50" relative="1" as="geometry">
            <mxPoint x="275" y="960" as="sourcePoint" />
            <mxPoint x="505" y="960" as="targetPoint" />
            <Array as="points">
              <mxPoint x="325" y="960" />
              <mxPoint x="375" y="960" />
            </Array>
          </mxGeometry>
        </mxCell>
        <mxCell id="A-kE1wjKScTK0xUyLV8q-116" value="3. Información de usuario y&amp;nbsp;&lt;div&gt;asignaturas asignadas&lt;/div&gt;" style="edgeLabel;html=1;align=center;verticalAlign=middle;resizable=0;points=[];" parent="A-kE1wjKScTK0xUyLV8q-115" vertex="1" connectable="0">
          <mxGeometry x="0.1095" relative="1" as="geometry">
            <mxPoint x="-13" y="20" as="offset" />
          </mxGeometry>
        </mxCell>
        <mxCell id="A-kE1wjKScTK0xUyLV8q-117" value="" style="endArrow=none;html=1;rounded=0;strokeColor=default;align=center;endSize=6;endFill=0;startArrow=classic;startFill=1;" parent="1" edge="1">
          <mxGeometry width="50" height="50" relative="1" as="geometry">
            <mxPoint x="85" y="1000" as="sourcePoint" />
            <mxPoint x="275" y="1000" as="targetPoint" />
            <Array as="points">
              <mxPoint x="100" y="1000" />
              <mxPoint x="150" y="1000" />
            </Array>
          </mxGeometry>
        </mxCell>
        <mxCell id="A-kE1wjKScTK0xUyLV8q-118" value="4. Organizar datos y&amp;nbsp;&lt;div&gt;cargar información&lt;/div&gt;" style="edgeLabel;html=1;align=center;verticalAlign=middle;resizable=0;points=[];" parent="A-kE1wjKScTK0xUyLV8q-117" vertex="1" connectable="0">
          <mxGeometry x="0.1095" relative="1" as="geometry">
            <mxPoint x="-11" y="-20" as="offset" />
          </mxGeometry>
        </mxCell>
        <mxCell id="A-kE1wjKScTK0xUyLV8q-155" style="edgeStyle=orthogonalEdgeStyle;rounded=0;orthogonalLoop=1;jettySize=auto;html=1;" parent="1" source="A-kE1wjKScTK0xUyLV8q-156" edge="1">
          <mxGeometry relative="1" as="geometry">
            <mxPoint x="2550" y="1641" as="targetPoint" />
          </mxGeometry>
        </mxCell>
        <mxCell id="A-kE1wjKScTK0xUyLV8q-156" value="Usuario" style="shape=umlActor;verticalLabelPosition=top;verticalAlign=bottom;html=1;outlineConnect=0;labelPosition=center;align=center;spacing=8;" parent="1" vertex="1">
          <mxGeometry x="2535" y="740" width="30" height="60" as="geometry" />
        </mxCell>
        <mxCell id="A-kE1wjKScTK0xUyLV8q-157" value="UC8: Crear Actividad" style="text;html=1;align=center;verticalAlign=middle;whiteSpace=wrap;rounded=0;" parent="1" vertex="1">
          <mxGeometry x="2812" y="680" width="166" height="30" as="geometry" />
        </mxCell>
        <mxCell id="A-kE1wjKScTK0xUyLV8q-158" style="edgeStyle=orthogonalEdgeStyle;rounded=0;orthogonalLoop=1;jettySize=auto;html=1;" parent="1" source="A-kE1wjKScTK0xUyLV8q-159" edge="1">
          <mxGeometry relative="1" as="geometry">
            <mxPoint x="2740" y="1640" as="targetPoint" />
          </mxGeometry>
        </mxCell>
        <mxCell id="A-kE1wjKScTK0xUyLV8q-159" value="Sistema Central" style="rounded=1;whiteSpace=wrap;html=1;" parent="1" vertex="1">
          <mxGeometry x="2686" y="760" width="110" height="40" as="geometry" />
        </mxCell>
        <mxCell id="A-kE1wjKScTK0xUyLV8q-160" style="edgeStyle=orthogonalEdgeStyle;rounded=0;orthogonalLoop=1;jettySize=auto;html=1;" parent="1" source="A-kE1wjKScTK0xUyLV8q-161" edge="1">
          <mxGeometry relative="1" as="geometry">
            <mxPoint x="2970" y="1640" as="targetPoint" />
          </mxGeometry>
        </mxCell>
        <mxCell id="A-kE1wjKScTK0xUyLV8q-161" value="Backend API" style="rounded=1;whiteSpace=wrap;html=1;" parent="1" vertex="1">
          <mxGeometry x="2915" y="760" width="110" height="40" as="geometry" />
        </mxCell>
        <mxCell id="A-kE1wjKScTK0xUyLV8q-162" style="edgeStyle=orthogonalEdgeStyle;rounded=0;orthogonalLoop=1;jettySize=auto;html=1;" parent="1" source="A-kE1wjKScTK0xUyLV8q-163" edge="1">
          <mxGeometry relative="1" as="geometry">
            <mxPoint x="3200" y="1640" as="targetPoint" />
          </mxGeometry>
        </mxCell>
        <mxCell id="A-kE1wjKScTK0xUyLV8q-163" value="Scheduler" style="rounded=1;whiteSpace=wrap;html=1;" parent="1" vertex="1">
          <mxGeometry x="3145" y="760" width="110" height="40" as="geometry" />
        </mxCell>
        <mxCell id="A-kE1wjKScTK0xUyLV8q-164" value="" style="endArrow=classic;html=1;rounded=0;strokeColor=default;align=center;endSize=6;" parent="1" edge="1">
          <mxGeometry width="50" height="50" relative="1" as="geometry">
            <mxPoint x="2550" y="840" as="sourcePoint" />
            <mxPoint x="2740" y="840" as="targetPoint" />
          </mxGeometry>
        </mxCell>
        <mxCell id="A-kE1wjKScTK0xUyLV8q-165" value="1. Seleccionar asignatura" style="edgeLabel;html=1;align=center;verticalAlign=middle;resizable=0;points=[];" parent="A-kE1wjKScTK0xUyLV8q-164" vertex="1" connectable="0">
          <mxGeometry x="0.1095" relative="1" as="geometry">
            <mxPoint x="-11" y="-10" as="offset" />
          </mxGeometry>
        </mxCell>
        <mxCell id="A-kE1wjKScTK0xUyLV8q-166" value="" style="endArrow=classic;html=1;rounded=0;strokeColor=default;align=center;endSize=6;" parent="1" edge="1">
          <mxGeometry width="50" height="50" relative="1" as="geometry">
            <mxPoint x="2741" y="880" as="sourcePoint" />
            <mxPoint x="2969" y="880" as="targetPoint" />
            <Array as="points">
              <mxPoint x="2785" y="880" />
              <mxPoint x="2835" y="880" />
            </Array>
          </mxGeometry>
        </mxCell>
        <mxCell id="A-kE1wjKScTK0xUyLV8q-167" value="2. Obtener información de asignatura&lt;div&gt;y actividades relacionadas&lt;/div&gt;" style="edgeLabel;html=1;align=center;verticalAlign=middle;resizable=0;points=[];" parent="A-kE1wjKScTK0xUyLV8q-166" vertex="1" connectable="0">
          <mxGeometry x="0.1095" relative="1" as="geometry">
            <mxPoint x="-13" y="-20" as="offset" />
          </mxGeometry>
        </mxCell>
        <mxCell id="A-kE1wjKScTK0xUyLV8q-168" value="" style="endArrow=none;html=1;rounded=0;strokeColor=default;align=center;endSize=6;endFill=0;startArrow=classic;startFill=1;" parent="1" edge="1">
          <mxGeometry width="50" height="50" relative="1" as="geometry">
            <mxPoint x="2550" y="960" as="sourcePoint" />
            <mxPoint x="2741" y="960" as="targetPoint" />
            <Array as="points">
              <mxPoint x="2558" y="960" />
              <mxPoint x="2608" y="960" />
            </Array>
          </mxGeometry>
        </mxCell>
        <mxCell id="A-kE1wjKScTK0xUyLV8q-169" value="4. Cargar información y mostrar" style="edgeLabel;html=1;align=center;verticalAlign=middle;resizable=0;points=[];" parent="A-kE1wjKScTK0xUyLV8q-168" vertex="1" connectable="0">
          <mxGeometry x="0.1095" relative="1" as="geometry">
            <mxPoint x="-11" y="-10" as="offset" />
          </mxGeometry>
        </mxCell>
        <mxCell id="A-kE1wjKScTK0xUyLV8q-170" value="" style="endArrow=none;html=1;rounded=0;strokeColor=default;align=center;endSize=6;startFill=1;startArrow=classic;" parent="1" edge="1">
          <mxGeometry width="50" height="50" relative="1" as="geometry">
            <mxPoint x="2741" y="920" as="sourcePoint" />
            <mxPoint x="2969" y="920" as="targetPoint" />
            <Array as="points">
              <mxPoint x="2783" y="920" />
              <mxPoint x="2833" y="920" />
            </Array>
          </mxGeometry>
        </mxCell>
        <mxCell id="A-kE1wjKScTK0xUyLV8q-171" value="3. Información de asignatura&lt;div&gt;y actividades relacionadas&lt;/div&gt;" style="edgeLabel;html=1;align=center;verticalAlign=middle;resizable=0;points=[];" parent="A-kE1wjKScTK0xUyLV8q-170" vertex="1" connectable="0">
          <mxGeometry x="0.1095" relative="1" as="geometry">
            <mxPoint x="-13" y="20" as="offset" />
          </mxGeometry>
        </mxCell>
        <mxCell id="A-kE1wjKScTK0xUyLV8q-191" style="edgeStyle=orthogonalEdgeStyle;rounded=0;orthogonalLoop=1;jettySize=auto;html=1;" parent="1" source="A-kE1wjKScTK0xUyLV8q-192" edge="1">
          <mxGeometry relative="1" as="geometry">
            <mxPoint x="85" y="2270" as="targetPoint" />
          </mxGeometry>
        </mxCell>
        <mxCell id="A-kE1wjKScTK0xUyLV8q-192" value="Usuario" style="shape=umlActor;verticalLabelPosition=top;verticalAlign=bottom;html=1;outlineConnect=0;labelPosition=center;align=center;spacing=8;" parent="1" vertex="1">
          <mxGeometry x="70" y="1730" width="30" height="60" as="geometry" />
        </mxCell>
        <mxCell id="A-kE1wjKScTK0xUyLV8q-193" value="UC10: Confirmar&amp;nbsp;&lt;div&gt;Actividad Organizada&lt;/div&gt;" style="text;html=1;align=center;verticalAlign=middle;whiteSpace=wrap;rounded=0;" parent="1" vertex="1">
          <mxGeometry x="346" y="1670" width="166" height="30" as="geometry" />
        </mxCell>
        <mxCell id="A-kE1wjKScTK0xUyLV8q-194" style="edgeStyle=orthogonalEdgeStyle;rounded=0;orthogonalLoop=1;jettySize=auto;html=1;" parent="1" source="A-kE1wjKScTK0xUyLV8q-195" edge="1">
          <mxGeometry relative="1" as="geometry">
            <mxPoint x="276" y="2270" as="targetPoint" />
          </mxGeometry>
        </mxCell>
        <mxCell id="A-kE1wjKScTK0xUyLV8q-195" value="Sistema Central" style="rounded=1;whiteSpace=wrap;html=1;" parent="1" vertex="1">
          <mxGeometry x="221" y="1750" width="110" height="40" as="geometry" />
        </mxCell>
        <mxCell id="A-kE1wjKScTK0xUyLV8q-196" style="edgeStyle=orthogonalEdgeStyle;rounded=0;orthogonalLoop=1;jettySize=auto;html=1;" parent="1" source="A-kE1wjKScTK0xUyLV8q-197" edge="1">
          <mxGeometry relative="1" as="geometry">
            <mxPoint x="505" y="2270" as="targetPoint" />
          </mxGeometry>
        </mxCell>
        <mxCell id="A-kE1wjKScTK0xUyLV8q-197" value="Backend API" style="rounded=1;whiteSpace=wrap;html=1;" parent="1" vertex="1">
          <mxGeometry x="450" y="1750" width="110" height="40" as="geometry" />
        </mxCell>
        <mxCell id="A-kE1wjKScTK0xUyLV8q-198" style="edgeStyle=orthogonalEdgeStyle;rounded=0;orthogonalLoop=1;jettySize=auto;html=1;" parent="1" source="A-kE1wjKScTK0xUyLV8q-199" edge="1">
          <mxGeometry relative="1" as="geometry">
            <mxPoint x="735" y="2270" as="targetPoint" />
          </mxGeometry>
        </mxCell>
        <mxCell id="A-kE1wjKScTK0xUyLV8q-199" value="Scheduler" style="rounded=1;whiteSpace=wrap;html=1;" parent="1" vertex="1">
          <mxGeometry x="680" y="1750" width="110" height="40" as="geometry" />
        </mxCell>
        <mxCell id="A-kE1wjKScTK0xUyLV8q-200" value="" style="endArrow=classic;html=1;rounded=0;strokeColor=default;align=center;endSize=6;" parent="1" edge="1">
          <mxGeometry width="50" height="50" relative="1" as="geometry">
            <mxPoint x="85" y="1840" as="sourcePoint" />
            <mxPoint x="275" y="1840" as="targetPoint" />
          </mxGeometry>
        </mxCell>
        <mxCell id="A-kE1wjKScTK0xUyLV8q-201" value="1. Selecciona sección Pendientes" style="edgeLabel;html=1;align=center;verticalAlign=middle;resizable=0;points=[];" parent="A-kE1wjKScTK0xUyLV8q-200" vertex="1" connectable="0">
          <mxGeometry x="0.1095" relative="1" as="geometry">
            <mxPoint x="-11" y="-10" as="offset" />
          </mxGeometry>
        </mxCell>
        <mxCell id="A-kE1wjKScTK0xUyLV8q-204" value="" style="endArrow=none;html=1;rounded=0;strokeColor=default;align=center;endSize=6;startArrow=classic;startFill=1;" parent="1" edge="1">
          <mxGeometry width="50" height="50" relative="1" as="geometry">
            <mxPoint x="275" y="1920" as="sourcePoint" />
            <mxPoint x="505" y="1920" as="targetPoint" />
            <Array as="points">
              <mxPoint x="320" y="1920" />
              <mxPoint x="370" y="1920" />
            </Array>
          </mxGeometry>
        </mxCell>
        <mxCell id="A-kE1wjKScTK0xUyLV8q-205" value="3. Actividades pendientes" style="edgeLabel;html=1;align=center;verticalAlign=middle;resizable=0;points=[];" parent="A-kE1wjKScTK0xUyLV8q-204" vertex="1" connectable="0">
          <mxGeometry x="0.1095" relative="1" as="geometry">
            <mxPoint x="-13" y="-10" as="offset" />
          </mxGeometry>
        </mxCell>
        <mxCell id="A-kE1wjKScTK0xUyLV8q-206" value="" style="endArrow=classic;html=1;rounded=0;strokeColor=default;align=center;endSize=6;endFill=1;startArrow=none;startFill=0;" parent="1" edge="1">
          <mxGeometry width="50" height="50" relative="1" as="geometry">
            <mxPoint x="275" y="2080" as="sourcePoint" />
            <mxPoint x="505" y="2080" as="targetPoint" />
            <Array as="points">
              <mxPoint x="325" y="2080" />
              <mxPoint x="375" y="2080" />
            </Array>
          </mxGeometry>
        </mxCell>
        <mxCell id="A-kE1wjKScTK0xUyLV8q-207" value="7. Modificar actividad a Asignada" style="edgeLabel;html=1;align=center;verticalAlign=middle;resizable=0;points=[];" parent="A-kE1wjKScTK0xUyLV8q-206" vertex="1" connectable="0">
          <mxGeometry x="0.1095" relative="1" as="geometry">
            <mxPoint x="-11" y="-10" as="offset" />
          </mxGeometry>
        </mxCell>
        <mxCell id="A-kE1wjKScTK0xUyLV8q-208" value="" style="endArrow=none;html=1;rounded=0;strokeColor=default;align=center;endSize=6;endFill=0;startArrow=classic;startFill=1;" parent="1" edge="1">
          <mxGeometry width="50" height="50" relative="1" as="geometry">
            <mxPoint x="85" y="1960" as="sourcePoint" />
            <mxPoint x="275" y="1960" as="targetPoint" />
            <Array as="points">
              <mxPoint x="100" y="1960" />
              <mxPoint x="150" y="1960" />
            </Array>
          </mxGeometry>
        </mxCell>
        <mxCell id="A-kE1wjKScTK0xUyLV8q-209" value="4. Cargar información y mostrar" style="edgeLabel;html=1;align=center;verticalAlign=middle;resizable=0;points=[];" parent="A-kE1wjKScTK0xUyLV8q-208" vertex="1" connectable="0">
          <mxGeometry x="0.1095" relative="1" as="geometry">
            <mxPoint x="-11" y="-10" as="offset" />
          </mxGeometry>
        </mxCell>
        <mxCell id="A-kE1wjKScTK0xUyLV8q-210" style="edgeStyle=orthogonalEdgeStyle;rounded=0;orthogonalLoop=1;jettySize=auto;html=1;" parent="1" source="A-kE1wjKScTK0xUyLV8q-211" edge="1">
          <mxGeometry relative="1" as="geometry">
            <mxPoint x="911" y="2270" as="targetPoint" />
          </mxGeometry>
        </mxCell>
        <mxCell id="A-kE1wjKScTK0xUyLV8q-211" value="Usuario" style="shape=umlActor;verticalLabelPosition=top;verticalAlign=bottom;html=1;outlineConnect=0;labelPosition=center;align=center;spacing=8;" parent="1" vertex="1">
          <mxGeometry x="896" y="1730" width="30" height="60" as="geometry" />
        </mxCell>
        <mxCell id="A-kE1wjKScTK0xUyLV8q-212" value="UC11: Modificar Asignatura" style="text;html=1;align=center;verticalAlign=middle;whiteSpace=wrap;rounded=0;" parent="1" vertex="1">
          <mxGeometry x="1173" y="1670" width="166" height="30" as="geometry" />
        </mxCell>
        <mxCell id="A-kE1wjKScTK0xUyLV8q-213" style="edgeStyle=orthogonalEdgeStyle;rounded=0;orthogonalLoop=1;jettySize=auto;html=1;" parent="1" source="A-kE1wjKScTK0xUyLV8q-214" edge="1">
          <mxGeometry relative="1" as="geometry">
            <mxPoint x="1102" y="2270" as="targetPoint" />
          </mxGeometry>
        </mxCell>
        <mxCell id="A-kE1wjKScTK0xUyLV8q-214" value="Sistema Central" style="rounded=1;whiteSpace=wrap;html=1;" parent="1" vertex="1">
          <mxGeometry x="1047" y="1750" width="110" height="40" as="geometry" />
        </mxCell>
        <mxCell id="A-kE1wjKScTK0xUyLV8q-215" style="edgeStyle=orthogonalEdgeStyle;rounded=0;orthogonalLoop=1;jettySize=auto;html=1;" parent="1" source="A-kE1wjKScTK0xUyLV8q-216" edge="1">
          <mxGeometry relative="1" as="geometry">
            <mxPoint x="1331" y="2270" as="targetPoint" />
          </mxGeometry>
        </mxCell>
        <mxCell id="A-kE1wjKScTK0xUyLV8q-216" value="Backend API" style="rounded=1;whiteSpace=wrap;html=1;" parent="1" vertex="1">
          <mxGeometry x="1276" y="1750" width="110" height="40" as="geometry" />
        </mxCell>
        <mxCell id="A-kE1wjKScTK0xUyLV8q-217" style="edgeStyle=orthogonalEdgeStyle;rounded=0;orthogonalLoop=1;jettySize=auto;html=1;" parent="1" source="A-kE1wjKScTK0xUyLV8q-218" edge="1">
          <mxGeometry relative="1" as="geometry">
            <mxPoint x="1561" y="2270" as="targetPoint" />
          </mxGeometry>
        </mxCell>
        <mxCell id="A-kE1wjKScTK0xUyLV8q-218" value="Scheduler" style="rounded=1;whiteSpace=wrap;html=1;" parent="1" vertex="1">
          <mxGeometry x="1506" y="1750" width="110" height="40" as="geometry" />
        </mxCell>
        <mxCell id="A-kE1wjKScTK0xUyLV8q-219" value="" style="endArrow=classic;html=1;rounded=0;strokeColor=default;align=center;endSize=6;" parent="1" edge="1">
          <mxGeometry width="50" height="50" relative="1" as="geometry">
            <mxPoint x="911" y="1840" as="sourcePoint" />
            <mxPoint x="1101" y="1840" as="targetPoint" />
          </mxGeometry>
        </mxCell>
        <mxCell id="A-kE1wjKScTK0xUyLV8q-220" value="1. Seleccionar asignatura" style="edgeLabel;html=1;align=center;verticalAlign=middle;resizable=0;points=[];" parent="A-kE1wjKScTK0xUyLV8q-219" vertex="1" connectable="0">
          <mxGeometry x="0.1095" relative="1" as="geometry">
            <mxPoint x="-11" y="-10" as="offset" />
          </mxGeometry>
        </mxCell>
        <mxCell id="A-kE1wjKScTK0xUyLV8q-221" value="" style="endArrow=classic;html=1;rounded=0;strokeColor=default;align=center;endSize=6;" parent="1" edge="1">
          <mxGeometry width="50" height="50" relative="1" as="geometry">
            <mxPoint x="1102" y="1880" as="sourcePoint" />
            <mxPoint x="1330" y="1880" as="targetPoint" />
            <Array as="points">
              <mxPoint x="1146" y="1880" />
              <mxPoint x="1196" y="1880" />
            </Array>
          </mxGeometry>
        </mxCell>
        <mxCell id="A-kE1wjKScTK0xUyLV8q-222" value="2. Obtener información de asignatura&lt;div&gt;y actividades relacionadas&lt;/div&gt;" style="edgeLabel;html=1;align=center;verticalAlign=middle;resizable=0;points=[];" parent="A-kE1wjKScTK0xUyLV8q-221" vertex="1" connectable="0">
          <mxGeometry x="0.1095" relative="1" as="geometry">
            <mxPoint x="-8" y="-20" as="offset" />
          </mxGeometry>
        </mxCell>
        <mxCell id="A-kE1wjKScTK0xUyLV8q-223" value="" style="endArrow=none;html=1;rounded=0;strokeColor=default;align=center;endSize=6;endFill=0;startArrow=classic;startFill=1;" parent="1" edge="1">
          <mxGeometry width="50" height="50" relative="1" as="geometry">
            <mxPoint x="911" y="1960" as="sourcePoint" />
            <mxPoint x="1102" y="1960" as="targetPoint" />
            <Array as="points">
              <mxPoint x="919" y="1960" />
              <mxPoint x="969" y="1960" />
            </Array>
          </mxGeometry>
        </mxCell>
        <mxCell id="A-kE1wjKScTK0xUyLV8q-224" value="4. Organizar y cargar información" style="edgeLabel;html=1;align=center;verticalAlign=middle;resizable=0;points=[];" parent="A-kE1wjKScTK0xUyLV8q-223" vertex="1" connectable="0">
          <mxGeometry x="0.1095" relative="1" as="geometry">
            <mxPoint x="-11" y="-10" as="offset" />
          </mxGeometry>
        </mxCell>
        <mxCell id="A-kE1wjKScTK0xUyLV8q-225" value="" style="endArrow=none;html=1;rounded=0;strokeColor=default;align=center;endSize=6;startFill=1;startArrow=classic;" parent="1" edge="1">
          <mxGeometry width="50" height="50" relative="1" as="geometry">
            <mxPoint x="1102" y="1920" as="sourcePoint" />
            <mxPoint x="1330" y="1920" as="targetPoint" />
            <Array as="points">
              <mxPoint x="1144" y="1920" />
              <mxPoint x="1194" y="1920" />
            </Array>
          </mxGeometry>
        </mxCell>
        <mxCell id="A-kE1wjKScTK0xUyLV8q-226" value="3. Información de asignatura y&lt;div&gt;actividades relacionadas&lt;/div&gt;" style="edgeLabel;html=1;align=center;verticalAlign=middle;resizable=0;points=[];" parent="A-kE1wjKScTK0xUyLV8q-225" vertex="1" connectable="0">
          <mxGeometry x="0.1095" relative="1" as="geometry">
            <mxPoint x="-13" y="-20" as="offset" />
          </mxGeometry>
        </mxCell>
        <mxCell id="A-kE1wjKScTK0xUyLV8q-244" style="edgeStyle=orthogonalEdgeStyle;rounded=0;orthogonalLoop=1;jettySize=auto;html=1;" parent="1" source="A-kE1wjKScTK0xUyLV8q-245" edge="1">
          <mxGeometry relative="1" as="geometry">
            <mxPoint x="1732" y="2270" as="targetPoint" />
          </mxGeometry>
        </mxCell>
        <mxCell id="A-kE1wjKScTK0xUyLV8q-245" value="Usuario" style="shape=umlActor;verticalLabelPosition=top;verticalAlign=bottom;html=1;outlineConnect=0;labelPosition=center;align=center;spacing=8;" parent="1" vertex="1">
          <mxGeometry x="1717" y="1730" width="30" height="60" as="geometry" />
        </mxCell>
        <mxCell id="A-kE1wjKScTK0xUyLV8q-246" value="UC12: Crear Asignatura" style="text;html=1;align=center;verticalAlign=middle;whiteSpace=wrap;rounded=0;" parent="1" vertex="1">
          <mxGeometry x="1978" y="1670" width="166" height="30" as="geometry" />
        </mxCell>
        <mxCell id="A-kE1wjKScTK0xUyLV8q-247" style="edgeStyle=orthogonalEdgeStyle;rounded=0;orthogonalLoop=1;jettySize=auto;html=1;" parent="1" source="A-kE1wjKScTK0xUyLV8q-248" edge="1">
          <mxGeometry relative="1" as="geometry">
            <mxPoint x="1923" y="2270" as="targetPoint" />
          </mxGeometry>
        </mxCell>
        <mxCell id="A-kE1wjKScTK0xUyLV8q-248" value="Sistema Central" style="rounded=1;whiteSpace=wrap;html=1;" parent="1" vertex="1">
          <mxGeometry x="1868" y="1750" width="110" height="40" as="geometry" />
        </mxCell>
        <mxCell id="A-kE1wjKScTK0xUyLV8q-249" style="edgeStyle=orthogonalEdgeStyle;rounded=0;orthogonalLoop=1;jettySize=auto;html=1;" parent="1" source="A-kE1wjKScTK0xUyLV8q-250" edge="1">
          <mxGeometry relative="1" as="geometry">
            <mxPoint x="2152" y="2270" as="targetPoint" />
          </mxGeometry>
        </mxCell>
        <mxCell id="A-kE1wjKScTK0xUyLV8q-250" value="Backend API" style="rounded=1;whiteSpace=wrap;html=1;" parent="1" vertex="1">
          <mxGeometry x="2097" y="1750" width="110" height="40" as="geometry" />
        </mxCell>
        <mxCell id="A-kE1wjKScTK0xUyLV8q-251" style="edgeStyle=orthogonalEdgeStyle;rounded=0;orthogonalLoop=1;jettySize=auto;html=1;" parent="1" source="A-kE1wjKScTK0xUyLV8q-252" edge="1">
          <mxGeometry relative="1" as="geometry">
            <mxPoint x="2382" y="2270" as="targetPoint" />
          </mxGeometry>
        </mxCell>
        <mxCell id="A-kE1wjKScTK0xUyLV8q-252" value="Scheduler" style="rounded=1;whiteSpace=wrap;html=1;" parent="1" vertex="1">
          <mxGeometry x="2327" y="1750" width="110" height="40" as="geometry" />
        </mxCell>
        <mxCell id="A-kE1wjKScTK0xUyLV8q-253" value="" style="endArrow=classic;html=1;rounded=0;strokeColor=default;align=center;endSize=6;" parent="1" edge="1">
          <mxGeometry width="50" height="50" relative="1" as="geometry">
            <mxPoint x="1732" y="1840" as="sourcePoint" />
            <mxPoint x="1922" y="1840" as="targetPoint" />
          </mxGeometry>
        </mxCell>
        <mxCell id="A-kE1wjKScTK0xUyLV8q-254" value="1. Seleccionar sección Asignaturas" style="edgeLabel;html=1;align=center;verticalAlign=middle;resizable=0;points=[];" parent="A-kE1wjKScTK0xUyLV8q-253" vertex="1" connectable="0">
          <mxGeometry x="0.1095" relative="1" as="geometry">
            <mxPoint x="-11" y="-10" as="offset" />
          </mxGeometry>
        </mxCell>
        <mxCell id="A-kE1wjKScTK0xUyLV8q-255" value="" style="endArrow=none;html=1;rounded=0;strokeColor=default;align=center;endSize=6;startFill=1;startArrow=classic;" parent="1" edge="1">
          <mxGeometry width="50" height="50" relative="1" as="geometry">
            <mxPoint x="1732" y="1960" as="sourcePoint" />
            <mxPoint x="1922" y="1960" as="targetPoint" />
          </mxGeometry>
        </mxCell>
        <mxCell id="wIJOqhJcUxoYRULqfEJb-124" value="4. Cargar información y mostrar" style="edgeLabel;html=1;align=center;verticalAlign=middle;resizable=0;points=[];" parent="A-kE1wjKScTK0xUyLV8q-255" vertex="1" connectable="0">
          <mxGeometry x="-0.1158" y="1" relative="1" as="geometry">
            <mxPoint x="16" y="-9" as="offset" />
          </mxGeometry>
        </mxCell>
        <mxCell id="A-kE1wjKScTK0xUyLV8q-257" value="" style="endArrow=none;html=1;rounded=0;strokeColor=default;align=center;endSize=6;startArrow=classic;startFill=1;" parent="1" edge="1">
          <mxGeometry width="50" height="50" relative="1" as="geometry">
            <mxPoint x="1922" y="1920" as="sourcePoint" />
            <mxPoint x="2152" y="1920" as="targetPoint" />
            <Array as="points">
              <mxPoint x="1967" y="1920" />
              <mxPoint x="2017" y="1920" />
            </Array>
          </mxGeometry>
        </mxCell>
        <mxCell id="A-kE1wjKScTK0xUyLV8q-258" value="3. Asignaturas" style="edgeLabel;html=1;align=center;verticalAlign=middle;resizable=0;points=[];" parent="A-kE1wjKScTK0xUyLV8q-257" vertex="1" connectable="0">
          <mxGeometry x="0.1095" relative="1" as="geometry">
            <mxPoint x="-11" y="-10" as="offset" />
          </mxGeometry>
        </mxCell>
        <mxCell id="A-kE1wjKScTK0xUyLV8q-259" value="" style="endArrow=classic;html=1;rounded=0;strokeColor=default;align=center;endSize=6;endFill=1;startArrow=none;startFill=0;" parent="1" edge="1">
          <mxGeometry width="50" height="50" relative="1" as="geometry">
            <mxPoint x="1922" y="2120" as="sourcePoint" />
            <mxPoint x="2152" y="2120" as="targetPoint" />
            <Array as="points">
              <mxPoint x="1972" y="2120" />
              <mxPoint x="2022" y="2120" />
            </Array>
          </mxGeometry>
        </mxCell>
        <mxCell id="A-kE1wjKScTK0xUyLV8q-260" value="8. Crear asignatura" style="edgeLabel;html=1;align=center;verticalAlign=middle;resizable=0;points=[];" parent="A-kE1wjKScTK0xUyLV8q-259" vertex="1" connectable="0">
          <mxGeometry x="0.1095" relative="1" as="geometry">
            <mxPoint x="-11" y="-10" as="offset" />
          </mxGeometry>
        </mxCell>
        <mxCell id="A-kE1wjKScTK0xUyLV8q-261" value="" style="endArrow=classic;html=1;rounded=0;strokeColor=default;align=center;endSize=6;endFill=1;startArrow=none;startFill=0;" parent="1" edge="1">
          <mxGeometry width="50" height="50" relative="1" as="geometry">
            <mxPoint x="1732" y="2000" as="sourcePoint" />
            <mxPoint x="1922" y="2000" as="targetPoint" />
            <Array as="points">
              <mxPoint x="1747" y="2000" />
              <mxPoint x="1797" y="2000" />
            </Array>
          </mxGeometry>
        </mxCell>
        <mxCell id="A-kE1wjKScTK0xUyLV8q-262" value="5. Pulsar Crear Asignatura" style="edgeLabel;html=1;align=center;verticalAlign=middle;resizable=0;points=[];" parent="A-kE1wjKScTK0xUyLV8q-261" vertex="1" connectable="0">
          <mxGeometry x="0.1095" relative="1" as="geometry">
            <mxPoint x="-11" y="-10" as="offset" />
          </mxGeometry>
        </mxCell>
        <mxCell id="wIJOqhJcUxoYRULqfEJb-1" value="" style="endArrow=classic;html=1;rounded=0;strokeColor=default;align=center;endSize=6;endFill=1;startArrow=none;startFill=0;" parent="1" edge="1">
          <mxGeometry width="50" height="50" relative="1" as="geometry">
            <mxPoint x="2550" y="1000" as="sourcePoint" />
            <mxPoint x="2741" y="1000" as="targetPoint" />
            <Array as="points">
              <mxPoint x="2558" y="1000" />
              <mxPoint x="2608" y="1000" />
            </Array>
          </mxGeometry>
        </mxCell>
        <mxCell id="wIJOqhJcUxoYRULqfEJb-2" value="5. Pulsar Crear Actividad" style="edgeLabel;html=1;align=center;verticalAlign=middle;resizable=0;points=[];" parent="wIJOqhJcUxoYRULqfEJb-1" vertex="1" connectable="0">
          <mxGeometry x="0.1095" relative="1" as="geometry">
            <mxPoint x="-11" y="-10" as="offset" />
          </mxGeometry>
        </mxCell>
        <mxCell id="wIJOqhJcUxoYRULqfEJb-3" value="" style="endArrow=classic;html=1;rounded=0;strokeColor=default;align=center;endSize=6;endFill=1;startArrow=none;startFill=0;" parent="1" edge="1">
          <mxGeometry width="50" height="50" relative="1" as="geometry">
            <mxPoint x="2550" y="1040" as="sourcePoint" />
            <mxPoint x="2741" y="1040" as="targetPoint" />
            <Array as="points">
              <mxPoint x="2558" y="1040" />
              <mxPoint x="2608" y="1040" />
            </Array>
          </mxGeometry>
        </mxCell>
        <mxCell id="wIJOqhJcUxoYRULqfEJb-4" value="6. Rellenar campos de Actividad" style="edgeLabel;html=1;align=center;verticalAlign=middle;resizable=0;points=[];" parent="wIJOqhJcUxoYRULqfEJb-3" vertex="1" connectable="0">
          <mxGeometry x="0.1095" relative="1" as="geometry">
            <mxPoint x="-11" y="-10" as="offset" />
          </mxGeometry>
        </mxCell>
        <mxCell id="wIJOqhJcUxoYRULqfEJb-5" value="" style="endArrow=classic;html=1;rounded=0;strokeColor=default;align=center;endSize=6;endFill=1;startArrow=none;startFill=0;" parent="1" edge="1">
          <mxGeometry width="50" height="50" relative="1" as="geometry">
            <mxPoint x="2550" y="1080" as="sourcePoint" />
            <mxPoint x="2741" y="1080" as="targetPoint" />
            <Array as="points">
              <mxPoint x="2558" y="1080" />
              <mxPoint x="2608" y="1080" />
            </Array>
          </mxGeometry>
        </mxCell>
        <mxCell id="wIJOqhJcUxoYRULqfEJb-6" value="7. Pulsar Crear Actividad" style="edgeLabel;html=1;align=center;verticalAlign=middle;resizable=0;points=[];" parent="wIJOqhJcUxoYRULqfEJb-5" vertex="1" connectable="0">
          <mxGeometry x="0.1095" relative="1" as="geometry">
            <mxPoint x="-11" y="-10" as="offset" />
          </mxGeometry>
        </mxCell>
        <mxCell id="wIJOqhJcUxoYRULqfEJb-7" value="" style="endArrow=classic;html=1;rounded=0;strokeColor=default;align=center;endSize=6;endFill=1;startArrow=none;startFill=0;" parent="1" edge="1">
          <mxGeometry width="50" height="50" relative="1" as="geometry">
            <mxPoint x="2740" y="1120" as="sourcePoint" />
            <mxPoint x="2970" y="1120" as="targetPoint" />
            <Array as="points">
              <mxPoint x="2748" y="1120" />
              <mxPoint x="2800" y="1120" />
            </Array>
          </mxGeometry>
        </mxCell>
        <mxCell id="wIJOqhJcUxoYRULqfEJb-9" value="8. Validar campos y crear Actividad" style="edgeLabel;html=1;align=center;verticalAlign=middle;resizable=0;points=[];" parent="wIJOqhJcUxoYRULqfEJb-7" vertex="1" connectable="0">
          <mxGeometry x="0.1231" y="-1" relative="1" as="geometry">
            <mxPoint x="-19" y="-10" as="offset" />
          </mxGeometry>
        </mxCell>
        <mxCell id="wIJOqhJcUxoYRULqfEJb-10" value="" style="endArrow=none;html=1;rounded=0;strokeColor=default;align=center;endSize=6;endFill=1;startArrow=classic;startFill=1;" parent="1" edge="1">
          <mxGeometry width="50" height="50" relative="1" as="geometry">
            <mxPoint x="2740" y="1160" as="sourcePoint" />
            <mxPoint x="2970" y="1160" as="targetPoint" />
            <Array as="points">
              <mxPoint x="2748" y="1160" />
              <mxPoint x="2800" y="1160" />
            </Array>
          </mxGeometry>
        </mxCell>
        <mxCell id="wIJOqhJcUxoYRULqfEJb-11" value="9. Actividad creada" style="edgeLabel;html=1;align=center;verticalAlign=middle;resizable=0;points=[];" parent="wIJOqhJcUxoYRULqfEJb-10" vertex="1" connectable="0">
          <mxGeometry x="0.1231" y="-1" relative="1" as="geometry">
            <mxPoint x="-19" y="-10" as="offset" />
          </mxGeometry>
        </mxCell>
        <mxCell id="wIJOqhJcUxoYRULqfEJb-12" value="" style="endArrow=classic;html=1;rounded=0;strokeColor=default;align=center;endSize=6;endFill=1;startArrow=none;startFill=0;" parent="1" edge="1">
          <mxGeometry width="50" height="50" relative="1" as="geometry">
            <mxPoint x="2740" y="1280" as="sourcePoint" />
            <mxPoint x="3200" y="1280" as="targetPoint" />
            <Array as="points">
              <mxPoint x="2748" y="1280" />
              <mxPoint x="2800" y="1280" />
            </Array>
          </mxGeometry>
        </mxCell>
        <mxCell id="wIJOqhJcUxoYRULqfEJb-13" value="12. Organizar actividad" style="edgeLabel;html=1;align=center;verticalAlign=middle;resizable=0;points=[];" parent="wIJOqhJcUxoYRULqfEJb-12" vertex="1" connectable="0">
          <mxGeometry x="0.1231" y="-1" relative="1" as="geometry">
            <mxPoint x="72" y="-10" as="offset" />
          </mxGeometry>
        </mxCell>
        <mxCell id="wIJOqhJcUxoYRULqfEJb-14" value="" style="endArrow=classic;html=1;rounded=0;strokeColor=default;align=center;endSize=6;endFill=1;startArrow=none;startFill=0;" parent="1" edge="1">
          <mxGeometry width="50" height="50" relative="1" as="geometry">
            <mxPoint x="2740" y="1200" as="sourcePoint" />
            <mxPoint x="2970" y="1200" as="targetPoint" />
            <Array as="points">
              <mxPoint x="2748" y="1200" />
              <mxPoint x="2800" y="1200" />
            </Array>
          </mxGeometry>
        </mxCell>
        <mxCell id="wIJOqhJcUxoYRULqfEJb-15" value="10. Recuperar calendario cercano&lt;div&gt;a la actividad creada&lt;/div&gt;" style="edgeLabel;html=1;align=center;verticalAlign=middle;resizable=0;points=[];" parent="wIJOqhJcUxoYRULqfEJb-14" vertex="1" connectable="0">
          <mxGeometry x="0.1231" y="-1" relative="1" as="geometry">
            <mxPoint x="-19" y="-21" as="offset" />
          </mxGeometry>
        </mxCell>
        <mxCell id="wIJOqhJcUxoYRULqfEJb-16" value="" style="endArrow=classic;html=1;rounded=0;strokeColor=default;align=center;endSize=6;endFill=1;startArrow=none;startFill=0;" parent="1" edge="1">
          <mxGeometry width="50" height="50" relative="1" as="geometry">
            <mxPoint x="2740" y="1240" as="sourcePoint" />
            <mxPoint x="2970" y="1240" as="targetPoint" />
            <Array as="points">
              <mxPoint x="2748" y="1240" />
              <mxPoint x="2800" y="1240" />
            </Array>
          </mxGeometry>
        </mxCell>
        <mxCell id="wIJOqhJcUxoYRULqfEJb-17" value="11.&amp;nbsp;&lt;span style=&quot;background-color: light-dark(#ffffff, var(--ge-dark-color, #121212)); color: light-dark(rgb(0, 0, 0), rgb(255, 255, 255));&quot;&gt;Calendario cercano a la actividad&lt;/span&gt;" style="edgeLabel;html=1;align=center;verticalAlign=middle;resizable=0;points=[];" parent="wIJOqhJcUxoYRULqfEJb-16" vertex="1" connectable="0">
          <mxGeometry x="0.1231" y="-1" relative="1" as="geometry">
            <mxPoint x="-19" y="-10" as="offset" />
          </mxGeometry>
        </mxCell>
        <mxCell id="wIJOqhJcUxoYRULqfEJb-18" value="" style="endArrow=none;html=1;rounded=0;strokeColor=default;align=center;endSize=6;endFill=1;startArrow=classic;startFill=1;" parent="1" edge="1">
          <mxGeometry width="50" height="50" relative="1" as="geometry">
            <mxPoint x="2740" y="1320" as="sourcePoint" />
            <mxPoint x="3200" y="1320" as="targetPoint" />
            <Array as="points">
              <mxPoint x="2748" y="1320" />
              <mxPoint x="2800" y="1320" />
            </Array>
          </mxGeometry>
        </mxCell>
        <mxCell id="wIJOqhJcUxoYRULqfEJb-19" value="13. Actividad organizada" style="edgeLabel;html=1;align=center;verticalAlign=middle;resizable=0;points=[];" parent="wIJOqhJcUxoYRULqfEJb-18" vertex="1" connectable="0">
          <mxGeometry x="0.1231" y="-1" relative="1" as="geometry">
            <mxPoint x="72" y="-10" as="offset" />
          </mxGeometry>
        </mxCell>
        <mxCell id="wIJOqhJcUxoYRULqfEJb-22" value="" style="endArrow=classic;html=1;rounded=0;strokeColor=default;align=center;endSize=6;endFill=1;startArrow=none;startFill=0;" parent="1" edge="1">
          <mxGeometry width="50" height="50" relative="1" as="geometry">
            <mxPoint x="2740" y="1360" as="sourcePoint" />
            <mxPoint x="2970" y="1360" as="targetPoint" />
            <Array as="points">
              <mxPoint x="2748" y="1360" />
              <mxPoint x="2800" y="1360" />
            </Array>
          </mxGeometry>
        </mxCell>
        <mxCell id="wIJOqhJcUxoYRULqfEJb-23" value="14. Actualizar Actividad" style="edgeLabel;html=1;align=center;verticalAlign=middle;resizable=0;points=[];" parent="wIJOqhJcUxoYRULqfEJb-22" vertex="1" connectable="0">
          <mxGeometry x="0.1231" y="-1" relative="1" as="geometry">
            <mxPoint x="-19" y="-11" as="offset" />
          </mxGeometry>
        </mxCell>
        <mxCell id="wIJOqhJcUxoYRULqfEJb-24" value="" style="endArrow=classic;html=1;rounded=0;strokeColor=default;align=center;endSize=6;endFill=1;startArrow=none;startFill=0;" parent="1" edge="1">
          <mxGeometry width="50" height="50" relative="1" as="geometry">
            <mxPoint x="2740" y="1400" as="sourcePoint" />
            <mxPoint x="2970" y="1400" as="targetPoint" />
            <Array as="points">
              <mxPoint x="2748" y="1400" />
              <mxPoint x="2800" y="1400" />
            </Array>
          </mxGeometry>
        </mxCell>
        <mxCell id="wIJOqhJcUxoYRULqfEJb-25" value="15. Actualizar Calendario Organizado" style="edgeLabel;html=1;align=center;verticalAlign=middle;resizable=0;points=[];" parent="wIJOqhJcUxoYRULqfEJb-24" vertex="1" connectable="0">
          <mxGeometry x="0.1231" y="-1" relative="1" as="geometry">
            <mxPoint x="-19" y="-11" as="offset" />
          </mxGeometry>
        </mxCell>
        <mxCell id="wIJOqhJcUxoYRULqfEJb-28" value="" style="endArrow=none;html=1;rounded=0;strokeColor=default;align=center;endSize=6;endFill=1;startArrow=classic;startFill=0;" parent="1" edge="1">
          <mxGeometry width="50" height="50" relative="1" as="geometry">
            <mxPoint x="2550" y="1440" as="sourcePoint" />
            <mxPoint x="2741" y="1440" as="targetPoint" />
            <Array as="points">
              <mxPoint x="2558" y="1440" />
              <mxPoint x="2608" y="1440" />
            </Array>
          </mxGeometry>
        </mxCell>
        <mxCell id="wIJOqhJcUxoYRULqfEJb-29" value="16. Confirmar Creación&amp;nbsp;&lt;div&gt;y Organización&lt;/div&gt;" style="edgeLabel;html=1;align=center;verticalAlign=middle;resizable=0;points=[];" parent="wIJOqhJcUxoYRULqfEJb-28" vertex="1" connectable="0">
          <mxGeometry x="0.1095" relative="1" as="geometry">
            <mxPoint x="-11" y="-20" as="offset" />
          </mxGeometry>
        </mxCell>
        <mxCell id="wIJOqhJcUxoYRULqfEJb-30" style="edgeStyle=orthogonalEdgeStyle;rounded=0;orthogonalLoop=1;jettySize=auto;html=1;" parent="1" source="wIJOqhJcUxoYRULqfEJb-31" edge="1">
          <mxGeometry relative="1" as="geometry">
            <mxPoint x="3377" y="1641" as="targetPoint" />
          </mxGeometry>
        </mxCell>
        <mxCell id="wIJOqhJcUxoYRULqfEJb-31" value="Usuario" style="shape=umlActor;verticalLabelPosition=top;verticalAlign=bottom;html=1;outlineConnect=0;labelPosition=center;align=center;spacing=8;" parent="1" vertex="1">
          <mxGeometry x="3362" y="740" width="30" height="60" as="geometry" />
        </mxCell>
        <mxCell id="wIJOqhJcUxoYRULqfEJb-32" value="UC9: Modificar Actividad" style="text;html=1;align=center;verticalAlign=middle;whiteSpace=wrap;rounded=0;" parent="1" vertex="1">
          <mxGeometry x="3639" y="680" width="166" height="30" as="geometry" />
        </mxCell>
        <mxCell id="wIJOqhJcUxoYRULqfEJb-33" style="edgeStyle=orthogonalEdgeStyle;rounded=0;orthogonalLoop=1;jettySize=auto;html=1;" parent="1" source="wIJOqhJcUxoYRULqfEJb-34" edge="1">
          <mxGeometry relative="1" as="geometry">
            <mxPoint x="3567" y="1640" as="targetPoint" />
          </mxGeometry>
        </mxCell>
        <mxCell id="wIJOqhJcUxoYRULqfEJb-34" value="Sistema Central" style="rounded=1;whiteSpace=wrap;html=1;" parent="1" vertex="1">
          <mxGeometry x="3513" y="760" width="110" height="40" as="geometry" />
        </mxCell>
        <mxCell id="wIJOqhJcUxoYRULqfEJb-35" style="edgeStyle=orthogonalEdgeStyle;rounded=0;orthogonalLoop=1;jettySize=auto;html=1;" parent="1" source="wIJOqhJcUxoYRULqfEJb-36" edge="1">
          <mxGeometry relative="1" as="geometry">
            <mxPoint x="3797" y="1640" as="targetPoint" />
          </mxGeometry>
        </mxCell>
        <mxCell id="wIJOqhJcUxoYRULqfEJb-36" value="Backend API" style="rounded=1;whiteSpace=wrap;html=1;" parent="1" vertex="1">
          <mxGeometry x="3742" y="760" width="110" height="40" as="geometry" />
        </mxCell>
        <mxCell id="wIJOqhJcUxoYRULqfEJb-37" style="edgeStyle=orthogonalEdgeStyle;rounded=0;orthogonalLoop=1;jettySize=auto;html=1;" parent="1" source="wIJOqhJcUxoYRULqfEJb-38" edge="1">
          <mxGeometry relative="1" as="geometry">
            <mxPoint x="4027" y="1640" as="targetPoint" />
          </mxGeometry>
        </mxCell>
        <mxCell id="wIJOqhJcUxoYRULqfEJb-38" value="Scheduler" style="rounded=1;whiteSpace=wrap;html=1;" parent="1" vertex="1">
          <mxGeometry x="3972" y="760" width="110" height="40" as="geometry" />
        </mxCell>
        <mxCell id="wIJOqhJcUxoYRULqfEJb-39" value="" style="endArrow=classic;html=1;rounded=0;strokeColor=default;align=center;endSize=6;" parent="1" edge="1">
          <mxGeometry width="50" height="50" relative="1" as="geometry">
            <mxPoint x="3377" y="840" as="sourcePoint" />
            <mxPoint x="3567" y="840" as="targetPoint" />
          </mxGeometry>
        </mxCell>
        <mxCell id="wIJOqhJcUxoYRULqfEJb-40" value="1. Seleccionar asignatura" style="edgeLabel;html=1;align=center;verticalAlign=middle;resizable=0;points=[];" parent="wIJOqhJcUxoYRULqfEJb-39" vertex="1" connectable="0">
          <mxGeometry x="0.1095" relative="1" as="geometry">
            <mxPoint x="-11" y="-10" as="offset" />
          </mxGeometry>
        </mxCell>
        <mxCell id="wIJOqhJcUxoYRULqfEJb-41" value="" style="endArrow=classic;html=1;rounded=0;strokeColor=default;align=center;endSize=6;" parent="1" edge="1">
          <mxGeometry width="50" height="50" relative="1" as="geometry">
            <mxPoint x="3568" y="880" as="sourcePoint" />
            <mxPoint x="3796" y="880" as="targetPoint" />
            <Array as="points">
              <mxPoint x="3612" y="880" />
              <mxPoint x="3662" y="880" />
            </Array>
          </mxGeometry>
        </mxCell>
        <mxCell id="wIJOqhJcUxoYRULqfEJb-42" value="2. Obtener información de asignatura&lt;div&gt;y actividades relacionadas&lt;/div&gt;" style="edgeLabel;html=1;align=center;verticalAlign=middle;resizable=0;points=[];" parent="wIJOqhJcUxoYRULqfEJb-41" vertex="1" connectable="0">
          <mxGeometry x="0.1095" relative="1" as="geometry">
            <mxPoint x="-13" y="-20" as="offset" />
          </mxGeometry>
        </mxCell>
        <mxCell id="wIJOqhJcUxoYRULqfEJb-43" value="" style="endArrow=none;html=1;rounded=0;strokeColor=default;align=center;endSize=6;endFill=0;startArrow=classic;startFill=1;" parent="1" edge="1">
          <mxGeometry width="50" height="50" relative="1" as="geometry">
            <mxPoint x="3377" y="960" as="sourcePoint" />
            <mxPoint x="3568" y="960" as="targetPoint" />
            <Array as="points">
              <mxPoint x="3385" y="960" />
              <mxPoint x="3435" y="960" />
            </Array>
          </mxGeometry>
        </mxCell>
        <mxCell id="wIJOqhJcUxoYRULqfEJb-44" value="4. Cargar información y mostrar" style="edgeLabel;html=1;align=center;verticalAlign=middle;resizable=0;points=[];" parent="wIJOqhJcUxoYRULqfEJb-43" vertex="1" connectable="0">
          <mxGeometry x="0.1095" relative="1" as="geometry">
            <mxPoint x="-11" y="-10" as="offset" />
          </mxGeometry>
        </mxCell>
        <mxCell id="wIJOqhJcUxoYRULqfEJb-45" value="" style="endArrow=none;html=1;rounded=0;strokeColor=default;align=center;endSize=6;startFill=1;startArrow=classic;" parent="1" edge="1">
          <mxGeometry width="50" height="50" relative="1" as="geometry">
            <mxPoint x="3568" y="920" as="sourcePoint" />
            <mxPoint x="3796" y="920" as="targetPoint" />
            <Array as="points">
              <mxPoint x="3610" y="920" />
              <mxPoint x="3660" y="920" />
            </Array>
          </mxGeometry>
        </mxCell>
        <mxCell id="wIJOqhJcUxoYRULqfEJb-46" value="3. Información de asignatura&lt;div&gt;y actividades relacionadas&lt;/div&gt;" style="edgeLabel;html=1;align=center;verticalAlign=middle;resizable=0;points=[];" parent="wIJOqhJcUxoYRULqfEJb-45" vertex="1" connectable="0">
          <mxGeometry x="0.1095" relative="1" as="geometry">
            <mxPoint x="-13" y="20" as="offset" />
          </mxGeometry>
        </mxCell>
        <mxCell id="wIJOqhJcUxoYRULqfEJb-47" value="" style="endArrow=classic;html=1;rounded=0;strokeColor=default;align=center;endSize=6;endFill=1;startArrow=none;startFill=0;" parent="1" edge="1">
          <mxGeometry width="50" height="50" relative="1" as="geometry">
            <mxPoint x="3377" y="1000" as="sourcePoint" />
            <mxPoint x="3568" y="1000" as="targetPoint" />
            <Array as="points">
              <mxPoint x="3385" y="1000" />
              <mxPoint x="3435" y="1000" />
            </Array>
          </mxGeometry>
        </mxCell>
        <mxCell id="wIJOqhJcUxoYRULqfEJb-48" value="5. Selecciona actividad" style="edgeLabel;html=1;align=center;verticalAlign=middle;resizable=0;points=[];" parent="wIJOqhJcUxoYRULqfEJb-47" vertex="1" connectable="0">
          <mxGeometry x="0.1095" relative="1" as="geometry">
            <mxPoint x="-11" y="-10" as="offset" />
          </mxGeometry>
        </mxCell>
        <mxCell id="wIJOqhJcUxoYRULqfEJb-49" value="" style="endArrow=classic;html=1;rounded=0;strokeColor=default;align=center;endSize=6;endFill=1;startArrow=none;startFill=0;" parent="1" edge="1">
          <mxGeometry width="50" height="50" relative="1" as="geometry">
            <mxPoint x="3377" y="1200" as="sourcePoint" />
            <mxPoint x="3568" y="1200" as="targetPoint" />
            <Array as="points">
              <mxPoint x="3385" y="1200" />
              <mxPoint x="3435" y="1200" />
            </Array>
          </mxGeometry>
        </mxCell>
        <mxCell id="wIJOqhJcUxoYRULqfEJb-50" value="10. Modificar campos de actividad" style="edgeLabel;html=1;align=center;verticalAlign=middle;resizable=0;points=[];" parent="wIJOqhJcUxoYRULqfEJb-49" vertex="1" connectable="0">
          <mxGeometry x="0.1095" relative="1" as="geometry">
            <mxPoint x="-11" y="-10" as="offset" />
          </mxGeometry>
        </mxCell>
        <mxCell id="wIJOqhJcUxoYRULqfEJb-51" value="" style="endArrow=classic;html=1;rounded=0;strokeColor=default;align=center;endSize=6;endFill=1;startArrow=none;startFill=0;" parent="1" edge="1">
          <mxGeometry width="50" height="50" relative="1" as="geometry">
            <mxPoint x="3377" y="1240" as="sourcePoint" />
            <mxPoint x="3568" y="1240" as="targetPoint" />
            <Array as="points">
              <mxPoint x="3385" y="1240" />
              <mxPoint x="3435" y="1240" />
            </Array>
          </mxGeometry>
        </mxCell>
        <mxCell id="wIJOqhJcUxoYRULqfEJb-52" value="11. Pulsar Modificar" style="edgeLabel;html=1;align=center;verticalAlign=middle;resizable=0;points=[];" parent="wIJOqhJcUxoYRULqfEJb-51" vertex="1" connectable="0">
          <mxGeometry x="0.1095" relative="1" as="geometry">
            <mxPoint x="-11" y="-10" as="offset" />
          </mxGeometry>
        </mxCell>
        <mxCell id="wIJOqhJcUxoYRULqfEJb-53" value="" style="endArrow=classic;html=1;rounded=0;strokeColor=default;align=center;endSize=6;endFill=1;startArrow=none;startFill=0;" parent="1" edge="1">
          <mxGeometry width="50" height="50" relative="1" as="geometry">
            <mxPoint x="3567" y="1280" as="sourcePoint" />
            <mxPoint x="3797" y="1280" as="targetPoint" />
            <Array as="points">
              <mxPoint x="3575" y="1280" />
              <mxPoint x="3627" y="1280" />
            </Array>
          </mxGeometry>
        </mxCell>
        <mxCell id="wIJOqhJcUxoYRULqfEJb-54" value="12. Validar campos y modificar actividad" style="edgeLabel;html=1;align=center;verticalAlign=middle;resizable=0;points=[];" parent="wIJOqhJcUxoYRULqfEJb-53" vertex="1" connectable="0">
          <mxGeometry x="0.1231" y="-1" relative="1" as="geometry">
            <mxPoint x="-19" y="-10" as="offset" />
          </mxGeometry>
        </mxCell>
        <mxCell id="wIJOqhJcUxoYRULqfEJb-55" value="" style="endArrow=none;html=1;rounded=0;strokeColor=default;align=center;endSize=6;endFill=1;startArrow=classic;startFill=1;" parent="1" edge="1">
          <mxGeometry width="50" height="50" relative="1" as="geometry">
            <mxPoint x="3567" y="1320" as="sourcePoint" />
            <mxPoint x="3797" y="1320" as="targetPoint" />
            <Array as="points">
              <mxPoint x="3575" y="1320" />
              <mxPoint x="3627" y="1320" />
            </Array>
          </mxGeometry>
        </mxCell>
        <mxCell id="wIJOqhJcUxoYRULqfEJb-56" value="13. Actividad modificada" style="edgeLabel;html=1;align=center;verticalAlign=middle;resizable=0;points=[];" parent="wIJOqhJcUxoYRULqfEJb-55" vertex="1" connectable="0">
          <mxGeometry x="0.1231" y="-1" relative="1" as="geometry">
            <mxPoint x="-19" y="-10" as="offset" />
          </mxGeometry>
        </mxCell>
        <mxCell id="wIJOqhJcUxoYRULqfEJb-57" value="" style="endArrow=classic;html=1;rounded=0;strokeColor=default;align=center;endSize=6;endFill=1;startArrow=none;startFill=0;" parent="1" edge="1">
          <mxGeometry width="50" height="50" relative="1" as="geometry">
            <mxPoint x="3567" y="1440" as="sourcePoint" />
            <mxPoint x="4027" y="1440" as="targetPoint" />
            <Array as="points">
              <mxPoint x="3575" y="1440" />
              <mxPoint x="3627" y="1440" />
            </Array>
          </mxGeometry>
        </mxCell>
        <mxCell id="wIJOqhJcUxoYRULqfEJb-58" value="16. Organizar actividad" style="edgeLabel;html=1;align=center;verticalAlign=middle;resizable=0;points=[];" parent="wIJOqhJcUxoYRULqfEJb-57" vertex="1" connectable="0">
          <mxGeometry x="0.1231" y="-1" relative="1" as="geometry">
            <mxPoint x="72" y="-10" as="offset" />
          </mxGeometry>
        </mxCell>
        <mxCell id="wIJOqhJcUxoYRULqfEJb-59" value="" style="endArrow=classic;html=1;rounded=0;strokeColor=default;align=center;endSize=6;endFill=1;startArrow=none;startFill=0;" parent="1" edge="1">
          <mxGeometry width="50" height="50" relative="1" as="geometry">
            <mxPoint x="3567" y="1360" as="sourcePoint" />
            <mxPoint x="3797" y="1360" as="targetPoint" />
            <Array as="points">
              <mxPoint x="3575" y="1360" />
              <mxPoint x="3627" y="1360" />
            </Array>
          </mxGeometry>
        </mxCell>
        <mxCell id="wIJOqhJcUxoYRULqfEJb-60" value="14. Recuperar calendario cercano&lt;div&gt;a la actividad modificada&lt;/div&gt;" style="edgeLabel;html=1;align=center;verticalAlign=middle;resizable=0;points=[];" parent="wIJOqhJcUxoYRULqfEJb-59" vertex="1" connectable="0">
          <mxGeometry x="0.1231" y="-1" relative="1" as="geometry">
            <mxPoint x="-19" y="-21" as="offset" />
          </mxGeometry>
        </mxCell>
        <mxCell id="wIJOqhJcUxoYRULqfEJb-61" value="" style="endArrow=classic;html=1;rounded=0;strokeColor=default;align=center;endSize=6;endFill=1;startArrow=none;startFill=0;" parent="1" edge="1">
          <mxGeometry width="50" height="50" relative="1" as="geometry">
            <mxPoint x="3567" y="1400" as="sourcePoint" />
            <mxPoint x="3797" y="1400" as="targetPoint" />
            <Array as="points">
              <mxPoint x="3575" y="1400" />
              <mxPoint x="3627" y="1400" />
            </Array>
          </mxGeometry>
        </mxCell>
        <mxCell id="wIJOqhJcUxoYRULqfEJb-62" value="15.&amp;nbsp;&lt;span style=&quot;background-color: light-dark(#ffffff, var(--ge-dark-color, #121212)); color: light-dark(rgb(0, 0, 0), rgb(255, 255, 255));&quot;&gt;Calendario cercano a la actividad&lt;/span&gt;" style="edgeLabel;html=1;align=center;verticalAlign=middle;resizable=0;points=[];" parent="wIJOqhJcUxoYRULqfEJb-61" vertex="1" connectable="0">
          <mxGeometry x="0.1231" y="-1" relative="1" as="geometry">
            <mxPoint x="-19" y="-10" as="offset" />
          </mxGeometry>
        </mxCell>
        <mxCell id="wIJOqhJcUxoYRULqfEJb-63" value="" style="endArrow=none;html=1;rounded=0;strokeColor=default;align=center;endSize=6;endFill=1;startArrow=classic;startFill=1;" parent="1" edge="1">
          <mxGeometry width="50" height="50" relative="1" as="geometry">
            <mxPoint x="3567" y="1480" as="sourcePoint" />
            <mxPoint x="4027" y="1480" as="targetPoint" />
            <Array as="points">
              <mxPoint x="3575" y="1480" />
              <mxPoint x="3627" y="1480" />
            </Array>
          </mxGeometry>
        </mxCell>
        <mxCell id="wIJOqhJcUxoYRULqfEJb-64" value="17. Actividad organizada" style="edgeLabel;html=1;align=center;verticalAlign=middle;resizable=0;points=[];" parent="wIJOqhJcUxoYRULqfEJb-63" vertex="1" connectable="0">
          <mxGeometry x="0.1231" y="-1" relative="1" as="geometry">
            <mxPoint x="72" y="-10" as="offset" />
          </mxGeometry>
        </mxCell>
        <mxCell id="wIJOqhJcUxoYRULqfEJb-65" value="" style="endArrow=classic;html=1;rounded=0;strokeColor=default;align=center;endSize=6;endFill=1;startArrow=none;startFill=0;" parent="1" edge="1">
          <mxGeometry width="50" height="50" relative="1" as="geometry">
            <mxPoint x="3567" y="1520" as="sourcePoint" />
            <mxPoint x="3797" y="1520" as="targetPoint" />
            <Array as="points">
              <mxPoint x="3575" y="1520" />
              <mxPoint x="3627" y="1520" />
            </Array>
          </mxGeometry>
        </mxCell>
        <mxCell id="wIJOqhJcUxoYRULqfEJb-66" value="18. Actualizar actividad" style="edgeLabel;html=1;align=center;verticalAlign=middle;resizable=0;points=[];" parent="wIJOqhJcUxoYRULqfEJb-65" vertex="1" connectable="0">
          <mxGeometry x="0.1231" y="-1" relative="1" as="geometry">
            <mxPoint x="-19" y="-11" as="offset" />
          </mxGeometry>
        </mxCell>
        <mxCell id="wIJOqhJcUxoYRULqfEJb-67" value="" style="endArrow=classic;html=1;rounded=0;strokeColor=default;align=center;endSize=6;endFill=1;startArrow=none;startFill=0;" parent="1" edge="1">
          <mxGeometry width="50" height="50" relative="1" as="geometry">
            <mxPoint x="3567" y="1560" as="sourcePoint" />
            <mxPoint x="3797" y="1560" as="targetPoint" />
            <Array as="points">
              <mxPoint x="3575" y="1560" />
              <mxPoint x="3627" y="1560" />
            </Array>
          </mxGeometry>
        </mxCell>
        <mxCell id="wIJOqhJcUxoYRULqfEJb-68" value="19. Actualizar calendario organizado" style="edgeLabel;html=1;align=center;verticalAlign=middle;resizable=0;points=[];" parent="wIJOqhJcUxoYRULqfEJb-67" vertex="1" connectable="0">
          <mxGeometry x="0.1231" y="-1" relative="1" as="geometry">
            <mxPoint x="-19" y="-11" as="offset" />
          </mxGeometry>
        </mxCell>
        <mxCell id="wIJOqhJcUxoYRULqfEJb-69" value="" style="endArrow=none;html=1;rounded=0;strokeColor=default;align=center;endSize=6;endFill=1;startArrow=classic;startFill=0;" parent="1" edge="1">
          <mxGeometry width="50" height="50" relative="1" as="geometry">
            <mxPoint x="3377" y="1600" as="sourcePoint" />
            <mxPoint x="3568" y="1600" as="targetPoint" />
            <Array as="points">
              <mxPoint x="3385" y="1600" />
              <mxPoint x="3435" y="1600" />
            </Array>
          </mxGeometry>
        </mxCell>
        <mxCell id="wIJOqhJcUxoYRULqfEJb-70" value="20. Confirmar creación&amp;nbsp;&lt;div&gt;y organización&lt;/div&gt;" style="edgeLabel;html=1;align=center;verticalAlign=middle;resizable=0;points=[];" parent="wIJOqhJcUxoYRULqfEJb-69" vertex="1" connectable="0">
          <mxGeometry x="0.1095" relative="1" as="geometry">
            <mxPoint x="-11" y="-20" as="offset" />
          </mxGeometry>
        </mxCell>
        <mxCell id="wIJOqhJcUxoYRULqfEJb-72" value="" style="endArrow=classic;html=1;rounded=0;strokeColor=default;align=center;endSize=6;" parent="1" edge="1">
          <mxGeometry width="50" height="50" relative="1" as="geometry">
            <mxPoint x="3570" y="1040" as="sourcePoint" />
            <mxPoint x="3798" y="1040" as="targetPoint" />
            <Array as="points">
              <mxPoint x="3614" y="1040" />
              <mxPoint x="3664" y="1040" />
            </Array>
          </mxGeometry>
        </mxCell>
        <mxCell id="wIJOqhJcUxoYRULqfEJb-73" value="6. Obtener información de&amp;nbsp;&lt;span style=&quot;background-color: light-dark(#ffffff, var(--ge-dark-color, #121212)); color: light-dark(rgb(0, 0, 0), rgb(255, 255, 255));&quot;&gt;actividad&lt;/span&gt;" style="edgeLabel;html=1;align=center;verticalAlign=middle;resizable=0;points=[];" parent="wIJOqhJcUxoYRULqfEJb-72" vertex="1" connectable="0">
          <mxGeometry x="0.1095" relative="1" as="geometry">
            <mxPoint x="-13" y="-10" as="offset" />
          </mxGeometry>
        </mxCell>
        <mxCell id="wIJOqhJcUxoYRULqfEJb-74" value="" style="endArrow=none;html=1;rounded=0;strokeColor=default;align=center;endSize=6;startArrow=classic;startFill=1;" parent="1" edge="1">
          <mxGeometry width="50" height="50" relative="1" as="geometry">
            <mxPoint x="3570" y="1080" as="sourcePoint" />
            <mxPoint x="3798" y="1080" as="targetPoint" />
            <Array as="points">
              <mxPoint x="3614" y="1080" />
              <mxPoint x="3664" y="1080" />
            </Array>
          </mxGeometry>
        </mxCell>
        <mxCell id="wIJOqhJcUxoYRULqfEJb-75" value="&lt;span style=&quot;background-color: light-dark(#ffffff, var(--ge-dark-color, #121212)); color: light-dark(rgb(0, 0, 0), rgb(255, 255, 255));&quot;&gt;7. Información de&amp;nbsp;&lt;/span&gt;&lt;span style=&quot;color: light-dark(rgb(0, 0, 0), rgb(255, 255, 255)); background-color: light-dark(#ffffff, var(--ge-dark-color, #121212));&quot;&gt;actividad&lt;/span&gt;" style="edgeLabel;html=1;align=center;verticalAlign=middle;resizable=0;points=[];" parent="wIJOqhJcUxoYRULqfEJb-74" vertex="1" connectable="0">
          <mxGeometry x="0.1095" relative="1" as="geometry">
            <mxPoint x="-13" y="-10" as="offset" />
          </mxGeometry>
        </mxCell>
        <mxCell id="wIJOqhJcUxoYRULqfEJb-76" value="" style="endArrow=none;html=1;rounded=0;strokeColor=default;align=center;endSize=6;endFill=0;startArrow=classic;startFill=1;" parent="1" edge="1">
          <mxGeometry width="50" height="50" relative="1" as="geometry">
            <mxPoint x="3378" y="1120" as="sourcePoint" />
            <mxPoint x="3568" y="1120" as="targetPoint" />
            <Array as="points">
              <mxPoint x="3388" y="1120" />
              <mxPoint x="3438" y="1120" />
            </Array>
          </mxGeometry>
        </mxCell>
        <mxCell id="wIJOqhJcUxoYRULqfEJb-77" value="8. Cargar actividad y mostrar" style="edgeLabel;html=1;align=center;verticalAlign=middle;resizable=0;points=[];" parent="wIJOqhJcUxoYRULqfEJb-76" vertex="1" connectable="0">
          <mxGeometry x="0.1095" relative="1" as="geometry">
            <mxPoint x="-11" y="-10" as="offset" />
          </mxGeometry>
        </mxCell>
        <mxCell id="wIJOqhJcUxoYRULqfEJb-78" value="" style="endArrow=classic;html=1;rounded=0;strokeColor=default;align=center;endSize=6;endFill=1;startArrow=none;startFill=0;" parent="1" edge="1">
          <mxGeometry width="50" height="50" relative="1" as="geometry">
            <mxPoint x="3377" y="1160" as="sourcePoint" />
            <mxPoint x="3568" y="1160" as="targetPoint" />
            <Array as="points">
              <mxPoint x="3388" y="1160" />
              <mxPoint x="3438" y="1160" />
            </Array>
          </mxGeometry>
        </mxCell>
        <mxCell id="wIJOqhJcUxoYRULqfEJb-79" value="9. Pulsar Modificar Actividad" style="edgeLabel;html=1;align=center;verticalAlign=middle;resizable=0;points=[];" parent="wIJOqhJcUxoYRULqfEJb-78" vertex="1" connectable="0">
          <mxGeometry x="0.1095" relative="1" as="geometry">
            <mxPoint x="-11" y="-10" as="offset" />
          </mxGeometry>
        </mxCell>
        <mxCell id="wIJOqhJcUxoYRULqfEJb-82" value="" style="endArrow=classic;html=1;rounded=0;strokeColor=default;align=center;endSize=6;" parent="1" edge="1">
          <mxGeometry width="50" height="50" relative="1" as="geometry">
            <mxPoint x="276" y="1880" as="sourcePoint" />
            <mxPoint x="505" y="1880" as="targetPoint" />
            <Array as="points">
              <mxPoint x="325" y="1880" />
              <mxPoint x="375" y="1880" />
            </Array>
          </mxGeometry>
        </mxCell>
        <mxCell id="wIJOqhJcUxoYRULqfEJb-83" value="2. Cargar actividades pendientes" style="edgeLabel;html=1;align=center;verticalAlign=middle;resizable=0;points=[];" parent="wIJOqhJcUxoYRULqfEJb-82" vertex="1" connectable="0">
          <mxGeometry x="0.1095" relative="1" as="geometry">
            <mxPoint x="-13" y="-10" as="offset" />
          </mxGeometry>
        </mxCell>
        <mxCell id="wIJOqhJcUxoYRULqfEJb-84" value="" style="endArrow=classic;html=1;rounded=0;strokeColor=default;align=center;endSize=6;endFill=1;startArrow=none;startFill=0;" parent="1" edge="1">
          <mxGeometry width="50" height="50" relative="1" as="geometry">
            <mxPoint x="86" y="2000" as="sourcePoint" />
            <mxPoint x="276" y="2000" as="targetPoint" />
            <Array as="points">
              <mxPoint x="105" y="2000" />
              <mxPoint x="155" y="2000" />
            </Array>
          </mxGeometry>
        </mxCell>
        <mxCell id="wIJOqhJcUxoYRULqfEJb-85" value="5. Seleccionar actividad pendiente" style="edgeLabel;html=1;align=center;verticalAlign=middle;resizable=0;points=[];" parent="wIJOqhJcUxoYRULqfEJb-84" vertex="1" connectable="0">
          <mxGeometry x="0.1095" relative="1" as="geometry">
            <mxPoint x="-11" y="-10" as="offset" />
          </mxGeometry>
        </mxCell>
        <mxCell id="wIJOqhJcUxoYRULqfEJb-86" value="" style="endArrow=classic;html=1;rounded=0;strokeColor=default;align=center;endSize=6;endFill=1;startArrow=none;startFill=0;" parent="1" edge="1">
          <mxGeometry width="50" height="50" relative="1" as="geometry">
            <mxPoint x="86" y="2040" as="sourcePoint" />
            <mxPoint x="276" y="2040" as="targetPoint" />
            <Array as="points">
              <mxPoint x="105" y="2040" />
              <mxPoint x="155" y="2040" />
            </Array>
          </mxGeometry>
        </mxCell>
        <mxCell id="wIJOqhJcUxoYRULqfEJb-87" value="6. Pulsar Confirmar" style="edgeLabel;html=1;align=center;verticalAlign=middle;resizable=0;points=[];" parent="wIJOqhJcUxoYRULqfEJb-86" vertex="1" connectable="0">
          <mxGeometry x="0.1095" relative="1" as="geometry">
            <mxPoint x="-11" y="-10" as="offset" />
          </mxGeometry>
        </mxCell>
        <mxCell id="wIJOqhJcUxoYRULqfEJb-88" value="" style="endArrow=none;html=1;rounded=0;strokeColor=default;align=center;endSize=6;endFill=1;startArrow=classic;startFill=1;" parent="1" edge="1">
          <mxGeometry width="50" height="50" relative="1" as="geometry">
            <mxPoint x="276" y="2120" as="sourcePoint" />
            <mxPoint x="505" y="2120" as="targetPoint" />
            <Array as="points">
              <mxPoint x="330" y="2120" />
              <mxPoint x="380" y="2120" />
            </Array>
          </mxGeometry>
        </mxCell>
        <mxCell id="wIJOqhJcUxoYRULqfEJb-89" value="8. Actividad Asignada" style="edgeLabel;html=1;align=center;verticalAlign=middle;resizable=0;points=[];" parent="wIJOqhJcUxoYRULqfEJb-88" vertex="1" connectable="0">
          <mxGeometry x="0.1095" relative="1" as="geometry">
            <mxPoint x="-11" y="-10" as="offset" />
          </mxGeometry>
        </mxCell>
        <mxCell id="wIJOqhJcUxoYRULqfEJb-90" value="" style="endArrow=none;html=1;rounded=0;strokeColor=default;align=center;endSize=6;endFill=0;startArrow=classic;startFill=1;" parent="1" edge="1">
          <mxGeometry width="50" height="50" relative="1" as="geometry">
            <mxPoint x="86" y="2160" as="sourcePoint" />
            <mxPoint x="276" y="2160" as="targetPoint" />
            <Array as="points">
              <mxPoint x="105" y="2160" />
              <mxPoint x="155" y="2160" />
            </Array>
          </mxGeometry>
        </mxCell>
        <mxCell id="wIJOqhJcUxoYRULqfEJb-91" value="9. Mostrar mensaje de éxito" style="edgeLabel;html=1;align=center;verticalAlign=middle;resizable=0;points=[];" parent="wIJOqhJcUxoYRULqfEJb-90" vertex="1" connectable="0">
          <mxGeometry x="0.1095" relative="1" as="geometry">
            <mxPoint x="-11" y="-10" as="offset" />
          </mxGeometry>
        </mxCell>
        <mxCell id="wIJOqhJcUxoYRULqfEJb-92" value="" style="endArrow=classic;html=1;rounded=0;strokeColor=default;align=center;endSize=6;" parent="1" edge="1">
          <mxGeometry width="50" height="50" relative="1" as="geometry">
            <mxPoint x="911" y="2000" as="sourcePoint" />
            <mxPoint x="1101" y="2000" as="targetPoint" />
          </mxGeometry>
        </mxCell>
        <mxCell id="wIJOqhJcUxoYRULqfEJb-93" value="5. Pulsar Modificar Asignatura" style="edgeLabel;html=1;align=center;verticalAlign=middle;resizable=0;points=[];" parent="wIJOqhJcUxoYRULqfEJb-92" vertex="1" connectable="0">
          <mxGeometry x="0.1095" relative="1" as="geometry">
            <mxPoint x="-11" y="-10" as="offset" />
          </mxGeometry>
        </mxCell>
        <mxCell id="wIJOqhJcUxoYRULqfEJb-94" value="" style="endArrow=classic;html=1;rounded=0;strokeColor=default;align=center;endSize=6;" parent="1" edge="1">
          <mxGeometry width="50" height="50" relative="1" as="geometry">
            <mxPoint x="911" y="2040" as="sourcePoint" />
            <mxPoint x="1101" y="2040" as="targetPoint" />
          </mxGeometry>
        </mxCell>
        <mxCell id="wIJOqhJcUxoYRULqfEJb-95" value="6. Cambiar campos de asignatura" style="edgeLabel;html=1;align=center;verticalAlign=middle;resizable=0;points=[];" parent="wIJOqhJcUxoYRULqfEJb-94" vertex="1" connectable="0">
          <mxGeometry x="0.1095" relative="1" as="geometry">
            <mxPoint x="-11" y="-10" as="offset" />
          </mxGeometry>
        </mxCell>
        <mxCell id="wIJOqhJcUxoYRULqfEJb-96" value="" style="endArrow=classic;html=1;rounded=0;strokeColor=default;align=center;endSize=6;" parent="1" edge="1">
          <mxGeometry width="50" height="50" relative="1" as="geometry">
            <mxPoint x="911" y="2080" as="sourcePoint" />
            <mxPoint x="1101" y="2080" as="targetPoint" />
          </mxGeometry>
        </mxCell>
        <mxCell id="wIJOqhJcUxoYRULqfEJb-97" value="7. Pulsar Confirmar" style="edgeLabel;html=1;align=center;verticalAlign=middle;resizable=0;points=[];" parent="wIJOqhJcUxoYRULqfEJb-96" vertex="1" connectable="0">
          <mxGeometry x="0.1095" relative="1" as="geometry">
            <mxPoint x="-11" y="-10" as="offset" />
          </mxGeometry>
        </mxCell>
        <mxCell id="wIJOqhJcUxoYRULqfEJb-98" value="" style="endArrow=classic;html=1;rounded=0;strokeColor=default;align=center;endSize=6;" parent="1" edge="1">
          <mxGeometry width="50" height="50" relative="1" as="geometry">
            <mxPoint x="1102" y="2120" as="sourcePoint" />
            <mxPoint x="1330" y="2120" as="targetPoint" />
            <Array as="points">
              <mxPoint x="1144" y="2120" />
              <mxPoint x="1194" y="2120" />
            </Array>
          </mxGeometry>
        </mxCell>
        <mxCell id="wIJOqhJcUxoYRULqfEJb-99" value="8. Modificar asignatura" style="edgeLabel;html=1;align=center;verticalAlign=middle;resizable=0;points=[];" parent="wIJOqhJcUxoYRULqfEJb-98" vertex="1" connectable="0">
          <mxGeometry x="0.1095" relative="1" as="geometry">
            <mxPoint x="-8" y="-10" as="offset" />
          </mxGeometry>
        </mxCell>
        <mxCell id="wIJOqhJcUxoYRULqfEJb-100" value="" style="endArrow=none;html=1;rounded=0;strokeColor=default;align=center;endSize=6;startArrow=classic;startFill=1;" parent="1" edge="1">
          <mxGeometry width="50" height="50" relative="1" as="geometry">
            <mxPoint x="1102" y="2160" as="sourcePoint" />
            <mxPoint x="1330" y="2160" as="targetPoint" />
            <Array as="points">
              <mxPoint x="1142" y="2160" />
              <mxPoint x="1192" y="2160" />
            </Array>
          </mxGeometry>
        </mxCell>
        <mxCell id="wIJOqhJcUxoYRULqfEJb-101" value="9. Asignatura modificada" style="edgeLabel;html=1;align=center;verticalAlign=middle;resizable=0;points=[];" parent="wIJOqhJcUxoYRULqfEJb-100" vertex="1" connectable="0">
          <mxGeometry x="0.1095" relative="1" as="geometry">
            <mxPoint x="-8" y="-10" as="offset" />
          </mxGeometry>
        </mxCell>
        <mxCell id="wIJOqhJcUxoYRULqfEJb-106" value="" style="endArrow=none;html=1;rounded=0;strokeColor=default;align=center;endSize=6;endFill=0;startArrow=classic;startFill=1;" parent="1" edge="1">
          <mxGeometry width="50" height="50" relative="1" as="geometry">
            <mxPoint x="911" y="2200" as="sourcePoint" />
            <mxPoint x="1102" y="2200" as="targetPoint" />
            <Array as="points">
              <mxPoint x="919" y="2200" />
              <mxPoint x="969" y="2200" />
            </Array>
          </mxGeometry>
        </mxCell>
        <mxCell id="wIJOqhJcUxoYRULqfEJb-107" value="10. Confirmar cambios" style="edgeLabel;html=1;align=center;verticalAlign=middle;resizable=0;points=[];" parent="wIJOqhJcUxoYRULqfEJb-106" vertex="1" connectable="0">
          <mxGeometry x="0.1095" relative="1" as="geometry">
            <mxPoint x="-11" y="-10" as="offset" />
          </mxGeometry>
        </mxCell>
        <mxCell id="wIJOqhJcUxoYRULqfEJb-122" value="" style="endArrow=classic;html=1;rounded=0;strokeColor=default;align=center;endSize=6;" parent="1" edge="1">
          <mxGeometry width="50" height="50" relative="1" as="geometry">
            <mxPoint x="1922" y="1880" as="sourcePoint" />
            <mxPoint x="2152" y="1880" as="targetPoint" />
            <Array as="points">
              <mxPoint x="1967" y="1880" />
              <mxPoint x="2017" y="1880" />
            </Array>
          </mxGeometry>
        </mxCell>
        <mxCell id="wIJOqhJcUxoYRULqfEJb-123" value="2. Obtener asignaturas" style="edgeLabel;html=1;align=center;verticalAlign=middle;resizable=0;points=[];" parent="wIJOqhJcUxoYRULqfEJb-122" vertex="1" connectable="0">
          <mxGeometry x="0.1095" relative="1" as="geometry">
            <mxPoint x="-11" y="-10" as="offset" />
          </mxGeometry>
        </mxCell>
        <mxCell id="wIJOqhJcUxoYRULqfEJb-125" value="" style="endArrow=classic;html=1;rounded=0;strokeColor=default;align=center;endSize=6;endFill=1;startArrow=none;startFill=0;" parent="1" edge="1">
          <mxGeometry width="50" height="50" relative="1" as="geometry">
            <mxPoint x="1732" y="2040" as="sourcePoint" />
            <mxPoint x="1922" y="2040" as="targetPoint" />
            <Array as="points">
              <mxPoint x="1747" y="2040" />
              <mxPoint x="1797" y="2040" />
            </Array>
          </mxGeometry>
        </mxCell>
        <mxCell id="wIJOqhJcUxoYRULqfEJb-126" value="6. Rellenar campos de asignatura" style="edgeLabel;html=1;align=center;verticalAlign=middle;resizable=0;points=[];" parent="wIJOqhJcUxoYRULqfEJb-125" vertex="1" connectable="0">
          <mxGeometry x="0.1095" relative="1" as="geometry">
            <mxPoint x="-11" y="-10" as="offset" />
          </mxGeometry>
        </mxCell>
        <mxCell id="wIJOqhJcUxoYRULqfEJb-127" value="" style="endArrow=classic;html=1;rounded=0;strokeColor=default;align=center;endSize=6;endFill=1;startArrow=none;startFill=0;" parent="1" edge="1">
          <mxGeometry width="50" height="50" relative="1" as="geometry">
            <mxPoint x="1732" y="2080" as="sourcePoint" />
            <mxPoint x="1922" y="2080" as="targetPoint" />
            <Array as="points">
              <mxPoint x="1747" y="2080" />
              <mxPoint x="1797" y="2080" />
            </Array>
          </mxGeometry>
        </mxCell>
        <mxCell id="wIJOqhJcUxoYRULqfEJb-128" value="7. Pulsar Confirmar" style="edgeLabel;html=1;align=center;verticalAlign=middle;resizable=0;points=[];" parent="wIJOqhJcUxoYRULqfEJb-127" vertex="1" connectable="0">
          <mxGeometry x="0.1095" relative="1" as="geometry">
            <mxPoint x="-11" y="-10" as="offset" />
          </mxGeometry>
        </mxCell>
        <mxCell id="wIJOqhJcUxoYRULqfEJb-129" value="" style="endArrow=none;html=1;rounded=0;strokeColor=default;align=center;endSize=6;endFill=1;startArrow=classic;startFill=1;" parent="1" edge="1">
          <mxGeometry width="50" height="50" relative="1" as="geometry">
            <mxPoint x="1922" y="2160" as="sourcePoint" />
            <mxPoint x="2152" y="2160" as="targetPoint" />
            <Array as="points">
              <mxPoint x="1972" y="2160" />
              <mxPoint x="2022" y="2160" />
            </Array>
          </mxGeometry>
        </mxCell>
        <mxCell id="wIJOqhJcUxoYRULqfEJb-130" value="9. Asignatura creada" style="edgeLabel;html=1;align=center;verticalAlign=middle;resizable=0;points=[];" parent="wIJOqhJcUxoYRULqfEJb-129" vertex="1" connectable="0">
          <mxGeometry x="0.1095" relative="1" as="geometry">
            <mxPoint x="-11" y="-10" as="offset" />
          </mxGeometry>
        </mxCell>
        <mxCell id="wIJOqhJcUxoYRULqfEJb-131" value="" style="endArrow=none;html=1;rounded=0;strokeColor=default;align=center;endSize=6;endFill=1;startArrow=classic;startFill=1;" parent="1" edge="1">
          <mxGeometry width="50" height="50" relative="1" as="geometry">
            <mxPoint x="1732" y="2200" as="sourcePoint" />
            <mxPoint x="1922" y="2200" as="targetPoint" />
            <Array as="points">
              <mxPoint x="1747" y="2200" />
              <mxPoint x="1797" y="2200" />
            </Array>
          </mxGeometry>
        </mxCell>
        <mxCell id="wIJOqhJcUxoYRULqfEJb-132" value="10. Confirmar creación" style="edgeLabel;html=1;align=center;verticalAlign=middle;resizable=0;points=[];" parent="wIJOqhJcUxoYRULqfEJb-131" vertex="1" connectable="0">
          <mxGeometry x="0.1095" relative="1" as="geometry">
            <mxPoint x="-11" y="-10" as="offset" />
          </mxGeometry>
        </mxCell>
        <mxCell id="wIJOqhJcUxoYRULqfEJb-133" style="edgeStyle=orthogonalEdgeStyle;rounded=0;orthogonalLoop=1;jettySize=auto;html=1;" parent="1" source="wIJOqhJcUxoYRULqfEJb-134" edge="1">
          <mxGeometry relative="1" as="geometry">
            <mxPoint x="905" y="1280" as="targetPoint" />
          </mxGeometry>
        </mxCell>
        <mxCell id="wIJOqhJcUxoYRULqfEJb-134" value="Usuario" style="shape=umlActor;verticalLabelPosition=top;verticalAlign=bottom;html=1;outlineConnect=0;labelPosition=center;align=center;spacing=8;" parent="1" vertex="1">
          <mxGeometry x="890" y="740" width="30" height="60" as="geometry" />
        </mxCell>
        <mxCell id="wIJOqhJcUxoYRULqfEJb-135" value="UC6: Modificar Contraseña" style="text;html=1;align=center;verticalAlign=middle;whiteSpace=wrap;rounded=0;" parent="1" vertex="1">
          <mxGeometry x="1167" y="680" width="166" height="30" as="geometry" />
        </mxCell>
        <mxCell id="wIJOqhJcUxoYRULqfEJb-136" style="edgeStyle=orthogonalEdgeStyle;rounded=0;orthogonalLoop=1;jettySize=auto;html=1;" parent="1" source="wIJOqhJcUxoYRULqfEJb-137" edge="1">
          <mxGeometry relative="1" as="geometry">
            <mxPoint x="1096" y="1280" as="targetPoint" />
          </mxGeometry>
        </mxCell>
        <mxCell id="wIJOqhJcUxoYRULqfEJb-137" value="Sistema Central" style="rounded=1;whiteSpace=wrap;html=1;" parent="1" vertex="1">
          <mxGeometry x="1041" y="760" width="110" height="40" as="geometry" />
        </mxCell>
        <mxCell id="wIJOqhJcUxoYRULqfEJb-138" style="edgeStyle=orthogonalEdgeStyle;rounded=0;orthogonalLoop=1;jettySize=auto;html=1;" parent="1" source="wIJOqhJcUxoYRULqfEJb-139" edge="1">
          <mxGeometry relative="1" as="geometry">
            <mxPoint x="1325" y="1280" as="targetPoint" />
          </mxGeometry>
        </mxCell>
        <mxCell id="wIJOqhJcUxoYRULqfEJb-139" value="Backend API" style="rounded=1;whiteSpace=wrap;html=1;" parent="1" vertex="1">
          <mxGeometry x="1270" y="760" width="110" height="40" as="geometry" />
        </mxCell>
        <mxCell id="wIJOqhJcUxoYRULqfEJb-140" style="edgeStyle=orthogonalEdgeStyle;rounded=0;orthogonalLoop=1;jettySize=auto;html=1;" parent="1" source="wIJOqhJcUxoYRULqfEJb-141" edge="1">
          <mxGeometry relative="1" as="geometry">
            <mxPoint x="1555" y="1280" as="targetPoint" />
          </mxGeometry>
        </mxCell>
        <mxCell id="wIJOqhJcUxoYRULqfEJb-141" value="Scheduler" style="rounded=1;whiteSpace=wrap;html=1;" parent="1" vertex="1">
          <mxGeometry x="1500" y="760" width="110" height="40" as="geometry" />
        </mxCell>
        <mxCell id="wIJOqhJcUxoYRULqfEJb-142" value="" style="endArrow=classic;html=1;rounded=0;strokeColor=default;align=center;endSize=6;" parent="1" edge="1">
          <mxGeometry width="50" height="50" relative="1" as="geometry">
            <mxPoint x="905" y="880" as="sourcePoint" />
            <mxPoint x="1095" y="880" as="targetPoint" />
          </mxGeometry>
        </mxCell>
        <mxCell id="wIJOqhJcUxoYRULqfEJb-143" value="1. Pulsar Actualizar Campos" style="edgeLabel;html=1;align=center;verticalAlign=middle;resizable=0;points=[];" parent="wIJOqhJcUxoYRULqfEJb-142" vertex="1" connectable="0">
          <mxGeometry x="0.1095" relative="1" as="geometry">
            <mxPoint x="-11" y="-10" as="offset" />
          </mxGeometry>
        </mxCell>
        <mxCell id="wIJOqhJcUxoYRULqfEJb-144" value="" style="endArrow=classic;html=1;rounded=0;strokeColor=default;align=center;endSize=6;" parent="1" edge="1">
          <mxGeometry width="50" height="50" relative="1" as="geometry">
            <mxPoint x="905" y="920" as="sourcePoint" />
            <mxPoint x="1095" y="920" as="targetPoint" />
          </mxGeometry>
        </mxCell>
        <mxCell id="wIJOqhJcUxoYRULqfEJb-145" value="2. Cambiar Campo Contraseña" style="edgeLabel;html=1;align=center;verticalAlign=middle;resizable=0;points=[];" parent="wIJOqhJcUxoYRULqfEJb-144" vertex="1" connectable="0">
          <mxGeometry x="0.1095" relative="1" as="geometry">
            <mxPoint x="-11" y="-10" as="offset" />
          </mxGeometry>
        </mxCell>
        <mxCell id="wIJOqhJcUxoYRULqfEJb-146" value="" style="endArrow=classic;html=1;rounded=0;strokeColor=default;align=center;endSize=6;" parent="1" edge="1">
          <mxGeometry width="50" height="50" relative="1" as="geometry">
            <mxPoint x="1095" y="1000" as="sourcePoint" />
            <mxPoint x="1325" y="1000" as="targetPoint" />
            <Array as="points">
              <mxPoint x="1140" y="1000" />
              <mxPoint x="1190" y="1000" />
            </Array>
          </mxGeometry>
        </mxCell>
        <mxCell id="wIJOqhJcUxoYRULqfEJb-147" value="4. Actualizar campos en base de datos" style="edgeLabel;html=1;align=center;verticalAlign=middle;resizable=0;points=[];" parent="wIJOqhJcUxoYRULqfEJb-146" vertex="1" connectable="0">
          <mxGeometry x="0.1095" relative="1" as="geometry">
            <mxPoint x="-13" y="-10" as="offset" />
          </mxGeometry>
        </mxCell>
        <mxCell id="wIJOqhJcUxoYRULqfEJb-148" value="" style="endArrow=none;html=1;rounded=0;strokeColor=default;align=center;endSize=6;endFill=0;startArrow=classic;startFill=1;" parent="1" edge="1">
          <mxGeometry width="50" height="50" relative="1" as="geometry">
            <mxPoint x="1095" y="1040" as="sourcePoint" />
            <mxPoint x="1325" y="1040" as="targetPoint" />
            <Array as="points">
              <mxPoint x="1145" y="1040" />
              <mxPoint x="1195" y="1040" />
            </Array>
          </mxGeometry>
        </mxCell>
        <mxCell id="wIJOqhJcUxoYRULqfEJb-149" value="5. Confirmar actualización" style="edgeLabel;html=1;align=center;verticalAlign=middle;resizable=0;points=[];" parent="wIJOqhJcUxoYRULqfEJb-148" vertex="1" connectable="0">
          <mxGeometry x="0.1095" relative="1" as="geometry">
            <mxPoint x="-11" y="-10" as="offset" />
          </mxGeometry>
        </mxCell>
        <mxCell id="wIJOqhJcUxoYRULqfEJb-150" value="" style="endArrow=none;html=1;rounded=0;strokeColor=default;align=center;endSize=6;endFill=0;startArrow=classic;startFill=1;" parent="1" edge="1">
          <mxGeometry width="50" height="50" relative="1" as="geometry">
            <mxPoint x="905" y="1080" as="sourcePoint" />
            <mxPoint x="1095" y="1080" as="targetPoint" />
            <Array as="points">
              <mxPoint x="920" y="1080" />
              <mxPoint x="970" y="1080" />
            </Array>
          </mxGeometry>
        </mxCell>
        <mxCell id="wIJOqhJcUxoYRULqfEJb-151" value="6. Confirmar actualización" style="edgeLabel;html=1;align=center;verticalAlign=middle;resizable=0;points=[];" parent="wIJOqhJcUxoYRULqfEJb-150" vertex="1" connectable="0">
          <mxGeometry x="0.1095" relative="1" as="geometry">
            <mxPoint x="-11" y="-10" as="offset" />
          </mxGeometry>
        </mxCell>
        <mxCell id="wIJOqhJcUxoYRULqfEJb-152" style="edgeStyle=orthogonalEdgeStyle;rounded=0;orthogonalLoop=1;jettySize=auto;html=1;" parent="1" source="wIJOqhJcUxoYRULqfEJb-153" edge="1">
          <mxGeometry relative="1" as="geometry">
            <mxPoint x="1731" y="1280" as="targetPoint" />
          </mxGeometry>
        </mxCell>
        <mxCell id="wIJOqhJcUxoYRULqfEJb-153" value="Usuario" style="shape=umlActor;verticalLabelPosition=top;verticalAlign=bottom;html=1;outlineConnect=0;labelPosition=center;align=center;spacing=8;" parent="1" vertex="1">
          <mxGeometry x="1716" y="740" width="30" height="60" as="geometry" />
        </mxCell>
        <mxCell id="wIJOqhJcUxoYRULqfEJb-154" value="UC7: Asignar Usuario&amp;nbsp;&lt;div&gt;A Asignatura&lt;br&gt;&lt;/div&gt;" style="text;html=1;align=center;verticalAlign=middle;whiteSpace=wrap;rounded=0;" parent="1" vertex="1">
          <mxGeometry x="1994" y="680" width="166" height="30" as="geometry" />
        </mxCell>
        <mxCell id="wIJOqhJcUxoYRULqfEJb-155" style="edgeStyle=orthogonalEdgeStyle;rounded=0;orthogonalLoop=1;jettySize=auto;html=1;" parent="1" source="wIJOqhJcUxoYRULqfEJb-156" edge="1">
          <mxGeometry relative="1" as="geometry">
            <mxPoint x="1922" y="1280" as="targetPoint" />
          </mxGeometry>
        </mxCell>
        <mxCell id="wIJOqhJcUxoYRULqfEJb-156" value="Sistema Central" style="rounded=1;whiteSpace=wrap;html=1;" parent="1" vertex="1">
          <mxGeometry x="1867" y="760" width="110" height="40" as="geometry" />
        </mxCell>
        <mxCell id="wIJOqhJcUxoYRULqfEJb-157" style="edgeStyle=orthogonalEdgeStyle;rounded=0;orthogonalLoop=1;jettySize=auto;html=1;" parent="1" source="wIJOqhJcUxoYRULqfEJb-158" edge="1">
          <mxGeometry relative="1" as="geometry">
            <mxPoint x="2151" y="1280" as="targetPoint" />
          </mxGeometry>
        </mxCell>
        <mxCell id="wIJOqhJcUxoYRULqfEJb-158" value="Backend API" style="rounded=1;whiteSpace=wrap;html=1;" parent="1" vertex="1">
          <mxGeometry x="2096" y="760" width="110" height="40" as="geometry" />
        </mxCell>
        <mxCell id="wIJOqhJcUxoYRULqfEJb-159" style="edgeStyle=orthogonalEdgeStyle;rounded=0;orthogonalLoop=1;jettySize=auto;html=1;" parent="1" source="wIJOqhJcUxoYRULqfEJb-160" edge="1">
          <mxGeometry relative="1" as="geometry">
            <mxPoint x="2381" y="1280" as="targetPoint" />
          </mxGeometry>
        </mxCell>
        <mxCell id="wIJOqhJcUxoYRULqfEJb-160" value="Scheduler" style="rounded=1;whiteSpace=wrap;html=1;" parent="1" vertex="1">
          <mxGeometry x="2326" y="760" width="110" height="40" as="geometry" />
        </mxCell>
        <mxCell id="wIJOqhJcUxoYRULqfEJb-161" value="" style="endArrow=classic;html=1;rounded=0;strokeColor=default;align=center;endSize=6;" parent="1" edge="1">
          <mxGeometry width="50" height="50" relative="1" as="geometry">
            <mxPoint x="1731" y="880" as="sourcePoint" />
            <mxPoint x="1921" y="880" as="targetPoint" />
          </mxGeometry>
        </mxCell>
        <mxCell id="wIJOqhJcUxoYRULqfEJb-162" value="1. Acceder sección de Asignador" style="edgeLabel;html=1;align=center;verticalAlign=middle;resizable=0;points=[];" parent="wIJOqhJcUxoYRULqfEJb-161" vertex="1" connectable="0">
          <mxGeometry x="0.1095" relative="1" as="geometry">
            <mxPoint x="-11" y="-10" as="offset" />
          </mxGeometry>
        </mxCell>
        <mxCell id="wIJOqhJcUxoYRULqfEJb-163" value="" style="endArrow=classic;html=1;rounded=0;strokeColor=default;align=center;endSize=6;" parent="1" edge="1">
          <mxGeometry width="50" height="50" relative="1" as="geometry">
            <mxPoint x="1922" y="1000" as="sourcePoint" />
            <mxPoint x="2150" y="1000" as="targetPoint" />
            <Array as="points">
              <mxPoint x="1966" y="1000" />
              <mxPoint x="2016" y="1000" />
            </Array>
          </mxGeometry>
        </mxCell>
        <mxCell id="wIJOqhJcUxoYRULqfEJb-164" value="4. Asignar Usuarios a la Asignatura" style="edgeLabel;html=1;align=center;verticalAlign=middle;resizable=0;points=[];" parent="wIJOqhJcUxoYRULqfEJb-163" vertex="1" connectable="0">
          <mxGeometry x="0.1095" relative="1" as="geometry">
            <mxPoint x="-13" y="-10" as="offset" />
          </mxGeometry>
        </mxCell>
        <mxCell id="wIJOqhJcUxoYRULqfEJb-165" value="" style="endArrow=none;html=1;rounded=0;strokeColor=default;align=center;endSize=6;endFill=0;startArrow=classic;startFill=1;" parent="1" edge="1">
          <mxGeometry width="50" height="50" relative="1" as="geometry">
            <mxPoint x="1731" y="1080" as="sourcePoint" />
            <mxPoint x="1922" y="1080" as="targetPoint" />
            <Array as="points">
              <mxPoint x="1739" y="1080" />
              <mxPoint x="1789" y="1080" />
            </Array>
          </mxGeometry>
        </mxCell>
        <mxCell id="wIJOqhJcUxoYRULqfEJb-166" value="6. Confirmación exitosa" style="edgeLabel;html=1;align=center;verticalAlign=middle;resizable=0;points=[];" parent="wIJOqhJcUxoYRULqfEJb-165" vertex="1" connectable="0">
          <mxGeometry x="0.1095" relative="1" as="geometry">
            <mxPoint x="-11" y="-10" as="offset" />
          </mxGeometry>
        </mxCell>
        <mxCell id="wIJOqhJcUxoYRULqfEJb-167" value="" style="endArrow=none;html=1;rounded=0;strokeColor=default;align=center;endSize=6;startFill=1;startArrow=classic;" parent="1" edge="1">
          <mxGeometry width="50" height="50" relative="1" as="geometry">
            <mxPoint x="1922" y="1040" as="sourcePoint" />
            <mxPoint x="2150" y="1040" as="targetPoint" />
            <Array as="points">
              <mxPoint x="1964" y="1040" />
              <mxPoint x="2014" y="1040" />
            </Array>
          </mxGeometry>
        </mxCell>
        <mxCell id="wIJOqhJcUxoYRULqfEJb-168" value="5. Confirmación exitosa&amp;nbsp;" style="edgeLabel;html=1;align=center;verticalAlign=middle;resizable=0;points=[];" parent="wIJOqhJcUxoYRULqfEJb-167" vertex="1" connectable="0">
          <mxGeometry x="0.1095" relative="1" as="geometry">
            <mxPoint x="-13" y="-10" as="offset" />
          </mxGeometry>
        </mxCell>
        <mxCell id="wIJOqhJcUxoYRULqfEJb-169" value="" style="endArrow=classic;html=1;rounded=0;strokeColor=default;align=center;endSize=6;" parent="1" edge="1">
          <mxGeometry width="50" height="50" relative="1" as="geometry">
            <mxPoint x="905" y="960" as="sourcePoint" />
            <mxPoint x="1095" y="960" as="targetPoint" />
          </mxGeometry>
        </mxCell>
        <mxCell id="wIJOqhJcUxoYRULqfEJb-170" value="3. Pulsar Confirmar" style="edgeLabel;html=1;align=center;verticalAlign=middle;resizable=0;points=[];" parent="wIJOqhJcUxoYRULqfEJb-169" vertex="1" connectable="0">
          <mxGeometry x="0.1095" relative="1" as="geometry">
            <mxPoint x="-11" y="-10" as="offset" />
          </mxGeometry>
        </mxCell>
        <mxCell id="wIJOqhJcUxoYRULqfEJb-171" value="" style="endArrow=classic;html=1;rounded=0;strokeColor=default;align=center;endSize=6;" parent="1" edge="1">
          <mxGeometry width="50" height="50" relative="1" as="geometry">
            <mxPoint x="1731" y="920" as="sourcePoint" />
            <mxPoint x="1921" y="920" as="targetPoint" />
          </mxGeometry>
        </mxCell>
        <mxCell id="wIJOqhJcUxoYRULqfEJb-172" value="2. Seleccionar Usuarios" style="edgeLabel;html=1;align=center;verticalAlign=middle;resizable=0;points=[];" parent="wIJOqhJcUxoYRULqfEJb-171" vertex="1" connectable="0">
          <mxGeometry x="0.1095" relative="1" as="geometry">
            <mxPoint x="-11" y="-10" as="offset" />
          </mxGeometry>
        </mxCell>
        <mxCell id="wIJOqhJcUxoYRULqfEJb-173" value="" style="endArrow=classic;html=1;rounded=0;strokeColor=default;align=center;endSize=6;" parent="1" edge="1">
          <mxGeometry width="50" height="50" relative="1" as="geometry">
            <mxPoint x="1731" y="960" as="sourcePoint" />
            <mxPoint x="1921" y="960" as="targetPoint" />
          </mxGeometry>
        </mxCell>
        <mxCell id="wIJOqhJcUxoYRULqfEJb-174" value="3. Pulsar Asignar Usuarios" style="edgeLabel;html=1;align=center;verticalAlign=middle;resizable=0;points=[];" parent="wIJOqhJcUxoYRULqfEJb-173" vertex="1" connectable="0">
          <mxGeometry x="0.1095" relative="1" as="geometry">
            <mxPoint x="-11" y="-10" as="offset" />
          </mxGeometry>
        </mxCell>
      </root>
    </mxGraphModel>
  </diagram>
</mxfile>
